<svg width="156" height="35" viewBox="0 0 156 35" fill="none" xmlns="http://www.w3.org/2000/svg">
<g clip-path="url(#clip0_889_1057)">
<mask id="mask0_889_1057" style="mask-type:luminance" maskUnits="userSpaceOnUse" x="0" y="0" width="156" height="35">
<path d="M155.5 0.5H0.5V34.5H155.5V0.5Z" fill="white"/>
</mask>
<g mask="url(#mask0_889_1057)">
<mask id="mask1_889_1057" style="mask-type:luminance" maskUnits="userSpaceOnUse" x="0" y="0" width="156" height="35">
<path d="M155.5 0.5H0.5V34.5H155.5V0.5Z" fill="white"/>
</mask>
<g mask="url(#mask1_889_1057)">
<path d="M44.3359 25.5001L49.9679 10.1001H53.1359L58.7679 25.5001H55.7759L54.5439 21.9361H48.5379L47.2839 25.5001H44.3359ZM49.3079 19.7361H53.7739L51.5299 13.3341L49.3079 19.7361Z" fill="white"/>
<path d="M64.5916 25.764C63.477 25.764 62.4943 25.522 61.6436 25.038C60.793 24.554 60.1183 23.8793 59.6196 23.014C59.1356 22.1487 58.8936 21.1587 58.8936 20.044C58.8936 18.9293 59.1356 17.9393 59.6196 17.074C60.1183 16.2087 60.793 15.534 61.6436 15.05C62.4943 14.566 63.477 14.324 64.5916 14.324C65.985 14.324 67.1583 14.6907 68.1116 15.424C69.065 16.1427 69.6735 17.14 69.9375 18.416H66.9676C66.821 17.888 66.5276 17.4773 66.0876 17.184C65.6623 16.876 65.1563 16.722 64.5696 16.722C63.7923 16.722 63.1323 17.0153 62.5896 17.602C62.047 18.1887 61.7756 19.0027 61.7756 20.044C61.7756 21.0853 62.047 21.8993 62.5896 22.486C63.1323 23.0727 63.7923 23.366 64.5696 23.366C65.1563 23.366 65.6623 23.2193 66.0876 22.926C66.5276 22.6327 66.821 22.2147 66.9676 21.672H69.9375C69.6735 22.904 69.065 23.894 68.1116 24.642C67.1583 25.39 65.985 25.764 64.5916 25.764Z" fill="white"/>
<path d="M71.5137 25.5V14.588H73.9997L74.2416 16.062C74.5936 15.534 75.0557 15.116 75.6276 14.808C76.2143 14.4853 76.889 14.324 77.6517 14.324C79.3383 14.324 80.5336 14.9767 81.2377 16.282C81.6337 15.6807 82.1616 15.204 82.8217 14.852C83.4963 14.5 84.2297 14.324 85.0217 14.324C86.4443 14.324 87.537 14.7493 88.2997 15.6C89.0623 16.4507 89.4437 17.6973 89.4437 19.34V25.5H86.6276V19.604C86.6276 18.6653 86.4443 17.9467 86.0777 17.448C85.7257 16.9493 85.1757 16.7 84.4277 16.7C83.665 16.7 83.049 16.9787 82.5797 17.536C82.125 18.0933 81.8977 18.8707 81.8977 19.868V25.5H79.0817V19.604C79.0817 18.6653 78.8983 17.9467 78.5316 17.448C78.165 16.9493 77.6003 16.7 76.8376 16.7C76.0896 16.7 75.481 16.9787 75.0117 17.536C74.557 18.0933 74.3297 18.8707 74.3297 19.868V25.5H71.5137Z" fill="white"/>
<path d="M96.4948 25.764C95.3948 25.764 94.4194 25.5293 93.5688 25.06C92.7181 24.5907 92.0508 23.9307 91.5668 23.08C91.0828 22.2293 90.8408 21.2467 90.8408 20.132C90.8408 19.0027 91.0754 17.998 91.5448 17.118C92.0288 16.238 92.6888 15.556 93.5248 15.072C94.3754 14.5733 95.3728 14.324 96.5168 14.324C97.5874 14.324 98.5334 14.5587 99.3548 15.028C100.176 15.4973 100.814 16.1427 101.269 16.964C101.738 17.7707 101.973 18.6727 101.973 19.67C101.973 19.8313 101.966 20 101.951 20.176C101.951 20.352 101.944 20.5353 101.929 20.726H93.6348C93.6934 21.5767 93.9868 22.244 94.5148 22.728C95.0574 23.212 95.7101 23.454 96.4728 23.454C97.0448 23.454 97.5214 23.3293 97.9028 23.08C98.2988 22.816 98.5921 22.4787 98.7828 22.068H101.643C101.438 22.7573 101.093 23.388 100.609 23.96C100.139 24.5173 99.5528 24.9573 98.8488 25.28C98.1594 25.6027 97.3748 25.764 96.4948 25.764ZM96.5168 16.612C95.8274 16.612 95.2188 16.81 94.6908 17.206C94.1628 17.5873 93.8254 18.174 93.6788 18.966H99.1128C99.0688 18.2473 98.8048 17.6753 98.3208 17.25C97.8368 16.8247 97.2354 16.612 96.5168 16.612Z" fill="white"/>
<path d="M114.775 25.7639C113.221 25.7639 111.886 25.4339 110.771 24.7739C109.657 24.0992 108.799 23.1679 108.197 21.9799C107.596 20.7772 107.295 19.3912 107.295 17.8219C107.295 16.2526 107.596 14.8666 108.197 13.6639C108.799 12.4612 109.657 11.5226 110.771 10.8479C111.886 10.1733 113.221 9.83594 114.775 9.83594C116.623 9.83594 118.134 10.2979 119.307 11.2219C120.495 12.1312 121.236 13.4146 121.529 15.0719H118.427C118.237 14.2359 117.826 13.5832 117.195 13.1139C116.579 12.6299 115.758 12.3879 114.731 12.3879C113.309 12.3879 112.194 12.8719 111.387 13.8399C110.581 14.8079 110.177 16.1352 110.177 17.8219C110.177 19.5086 110.581 20.8359 111.387 21.8039C112.194 22.7572 113.309 23.2339 114.731 23.2339C115.758 23.2339 116.579 23.0139 117.195 22.5739C117.826 22.1192 118.237 21.4959 118.427 20.7039H121.529C121.236 22.2879 120.495 23.5272 119.307 24.4219C118.134 25.3166 116.623 25.7639 114.775 25.7639Z" fill="white"/>
<path d="M128.268 25.764C127.212 25.764 126.259 25.522 125.408 25.038C124.572 24.554 123.905 23.8867 123.406 23.036C122.922 22.1707 122.68 21.1733 122.68 20.044C122.68 18.9147 122.93 17.9247 123.428 17.074C123.927 16.2087 124.594 15.534 125.43 15.05C126.281 14.566 127.234 14.324 128.29 14.324C129.332 14.324 130.27 14.566 131.106 15.05C131.957 15.534 132.624 16.2087 133.108 17.074C133.607 17.9247 133.856 18.9147 133.856 20.044C133.856 21.1733 133.607 22.1707 133.108 23.036C132.624 23.8867 131.957 24.554 131.106 25.038C130.256 25.522 129.31 25.764 128.268 25.764ZM128.268 23.322C129.002 23.322 129.64 23.0507 130.182 22.508C130.725 21.9507 130.996 21.1293 130.996 20.044C130.996 18.9587 130.725 18.1447 130.182 17.602C129.64 17.0447 129.009 16.766 128.29 16.766C127.542 16.766 126.897 17.0447 126.354 17.602C125.826 18.1447 125.562 18.9587 125.562 20.044C125.562 21.1293 125.826 21.9507 126.354 22.508C126.897 23.0507 127.535 23.322 128.268 23.322Z" fill="white"/>
<path d="M135.45 25.5V14.588H137.958L138.222 16.634C138.618 15.93 139.153 15.3727 139.828 14.962C140.517 14.5367 141.324 14.324 142.248 14.324V17.294H141.456C140.84 17.294 140.29 17.3893 139.806 17.58C139.322 17.7707 138.941 18.1007 138.662 18.57C138.398 19.0393 138.266 19.692 138.266 20.528V25.5H135.45Z" fill="white"/>
<path d="M143.249 30.34V14.588H145.757L146.065 16.15C146.417 15.666 146.879 15.2407 147.451 14.874C148.037 14.5073 148.793 14.324 149.717 14.324C150.743 14.324 151.66 14.5733 152.467 15.072C153.273 15.5707 153.911 16.2527 154.381 17.118C154.85 17.9833 155.085 18.966 155.085 20.066C155.085 21.166 154.85 22.1487 154.381 23.014C153.911 23.8647 153.273 24.5393 152.467 25.038C151.66 25.522 150.743 25.764 149.717 25.764C148.895 25.764 148.177 25.61 147.561 25.302C146.945 24.994 146.446 24.5613 146.065 24.004V30.34H143.249ZM149.123 23.3C150.017 23.3 150.758 22.9993 151.345 22.398C151.931 21.7967 152.225 21.0193 152.225 20.066C152.225 19.1127 151.931 18.328 151.345 17.712C150.758 17.096 150.017 16.788 149.123 16.788C148.213 16.788 147.465 17.096 146.879 17.712C146.307 18.3133 146.021 19.0907 146.021 20.044C146.021 20.9973 146.307 21.782 146.879 22.398C147.465 22.9993 148.213 23.3 149.123 23.3Z" fill="white"/>
<path d="M0.5 0.5L17.5 9V17.5L0.5 9V0.5Z" fill="white"/>
<path d="M0.5 34.5L17.5 26V17.5L0.5 26V34.5Z" fill="white"/>
<path d="M17.5 34.5L34.5 26V17.5L17.5 26V34.5Z" fill="white"/>
<path d="M17.5 0.5L34.5 9V17.5L17.5 9V0.5Z" fill="white"/>
</g>
</g>
</g>
<defs>
<clipPath id="clip0_889_1057">
<rect width="155" height="34" fill="white" transform="translate(0.5 0.5)"/>
</clipPath>
</defs>
</svg>
