<svg width="103" height="34" viewBox="0 0 103 34" fill="none" xmlns="http://www.w3.org/2000/svg">
<path d="M67.3527 9.38623L70.6077 14.8876H70.7337L74.0047 9.38623H77.8587L72.9327 17.457L77.9687 25.5277H74.0437L70.7337 20.0185H70.6077L67.2977 25.5277H63.3877L68.4397 17.457L63.4827 9.38623H67.3527Z" fill="white"/>
<path d="M49.8975 25.5277V9.38623H60.7745V12.2H53.3105V16.0462H60.2145V18.8599H53.3105V22.714H60.8055V25.5277H49.8975Z" fill="white"/>
<path d="M34.8613 25.5277V9.38623H41.2296C42.4539 9.38623 43.4969 9.62005 44.3586 10.0877C45.2203 10.5501 45.8771 11.1938 46.329 12.0187C46.7861 12.8384 47.0147 13.7842 47.0147 14.8561C47.0147 15.9279 46.7835 16.8737 46.3211 17.6934C45.8587 18.5131 45.1888 19.1515 44.3113 19.6086C43.4391 20.0658 42.383 20.2943 41.1429 20.2943H37.0839V17.5594H40.5912C41.248 17.5594 41.7892 17.4465 42.2148 17.2205C42.6457 16.9893 42.9662 16.6714 43.1764 16.2669C43.3918 15.857 43.4995 15.3867 43.4995 14.8561C43.4995 14.3201 43.3918 13.8525 43.1764 13.4531C42.9662 13.0486 42.6457 12.7359 42.2148 12.5152C41.784 12.2893 41.2375 12.1763 40.5755 12.1763H38.274V25.5277H34.8613Z" fill="white"/>
<path d="M20.3748 25.5277H16.7178L22.29 9.38623H26.6879L32.2523 25.5277H28.5953L24.552 13.0748H24.4259L20.3748 25.5277ZM20.1462 19.183H28.7844V21.847H20.1462V19.183Z" fill="white"/>
</svg>
