<svg width="156" height="35" viewBox="0 0 156 35" fill="none" xmlns="http://www.w3.org/2000/svg">
<g clip-path="url(#clip0_889_1113)">
<path d="M31.317 9C31.091 12.3056 29.5002 17.5 29.5002 17.5C29.5002 17.5 27.9272 11.8333 27.7012 9C27.328 4.3218 28.1531 0.5 29.5091 0.5C30.8651 0.5 31.6372 4.31751 31.317 9Z" fill="white"/>
<path d="M27.6834 26C27.9094 22.6944 29.5002 17.5 29.5002 17.5C29.5002 17.5 31.0732 23.1667 31.2992 26C31.6724 30.6782 30.8473 34.5 29.4913 34.5C28.1353 34.5 27.3632 30.6825 27.6834 26Z" fill="white"/>
<path d="M21 15.6834C24.3056 15.9094 29.5 17.5002 29.5 17.5002C29.5 17.5002 23.8333 19.0732 21 19.2992C16.3218 19.6724 12.5 18.8473 12.5 17.4913C12.5 16.1353 16.3175 15.3632 21 15.6834Z" fill="white"/>
<path d="M38 19.317C34.6944 19.091 29.5 17.5002 29.5 17.5002C29.5 17.5002 35.1667 15.9272 38 15.7012C42.6782 15.328 46.5 16.1531 46.5 17.5091C46.5 18.8651 42.6825 19.6372 38 19.317Z" fill="white"/>
<path d="M24.7743 10.2049C26.9519 12.7021 29.5 17.5 29.5 17.5C29.5 17.5 24.3808 14.6054 22.2175 12.7617C18.6456 9.71761 16.5267 6.43174 17.4855 5.47293C18.4443 4.51413 21.6896 6.66756 24.7743 10.2049Z" fill="white"/>
<path d="M34.2257 24.7951C32.0481 22.2979 29.5 17.5 29.5 17.5C29.5 17.5 34.6193 20.3946 36.7825 22.2383C40.3544 25.2824 42.4733 28.5683 41.5145 29.5271C40.5557 30.4859 37.3104 28.3325 34.2257 24.7951Z" fill="white"/>
<path d="M22.2044 22.2257C24.7016 20.0481 29.4995 17.5 29.4995 17.5C29.4995 17.5 26.6049 22.6192 24.7612 24.7825C21.7171 28.3544 18.4312 30.4733 17.4724 29.5145C16.5136 28.5557 18.667 25.3104 22.2044 22.2257Z" fill="white"/>
<path d="M36.7951 12.7743C34.2979 14.9519 29.5 17.5 29.5 17.5C29.5 17.5 32.3946 12.3808 34.2383 10.2175C37.2824 6.64561 40.5683 4.52665 41.5271 5.48546C42.4859 6.44426 40.3325 9.6896 36.7951 12.7743Z" fill="white"/>
<path d="M141.422 26V9H144.019V26H141.422Z" fill="white"/>
<path d="M132.471 26.2362C131.448 26.2362 130.519 25.9765 129.685 25.457C128.866 24.9376 128.213 24.2371 127.725 23.3557C127.253 22.4584 127.017 21.4589 127.017 20.357C127.017 19.2395 127.253 18.2399 127.725 17.3584C128.213 16.4612 128.866 15.7529 129.685 15.2334C130.519 14.6982 131.448 14.4307 132.471 14.4307C133.337 14.4307 134.1 14.6195 134.761 14.9973C135.438 15.3594 135.973 15.8631 136.367 16.5084C136.76 17.1538 136.957 17.8857 136.957 18.7043V21.9626C136.957 22.7811 136.76 23.5131 136.367 24.1584C135.989 24.8038 135.462 25.3154 134.785 25.6932C134.108 26.0552 133.337 26.2362 132.471 26.2362ZM132.896 23.7807C133.856 23.7807 134.627 23.458 135.21 22.8126C135.808 22.1672 136.107 21.3408 136.107 20.3334C136.107 19.6566 135.973 19.0584 135.706 18.539C135.438 18.0195 135.06 17.6182 134.572 17.3348C134.1 17.0357 133.541 16.8862 132.896 16.8862C132.266 16.8862 131.708 17.0357 131.22 17.3348C130.747 17.6182 130.37 18.0195 130.086 18.539C129.819 19.0584 129.685 19.6566 129.685 20.3334C129.685 21.0103 129.819 21.6084 130.086 22.1279C130.37 22.6473 130.747 23.0566 131.22 23.3557C131.708 23.639 132.266 23.7807 132.896 23.7807ZM135.942 26.0001V22.9543L136.39 20.1918L135.942 17.4529V14.6668H138.539V26.0001H135.942Z" fill="white"/>
<path d="M122.215 25.9999V14.6666H124.812V25.9999H122.215ZM123.514 12.5888C123.073 12.5888 122.703 12.4393 122.404 12.1402C122.121 11.8411 121.979 11.4712 121.979 11.0305C121.979 10.5897 122.121 10.2199 122.404 9.92078C122.703 9.62171 123.073 9.47217 123.514 9.47217C123.97 9.47217 124.34 9.62171 124.623 9.92078C124.907 10.2199 125.048 10.5897 125.048 11.0305C125.048 11.4712 124.907 11.8411 124.623 12.1402C124.34 12.4393 123.97 12.5888 123.514 12.5888Z" fill="white"/>
<path d="M114.992 25.9999V9.94434H117.589V25.9999H114.992ZM112.276 17.0277V14.6666H120.304V17.0277H112.276Z" fill="white"/>
<path d="M106.829 26.2362C106.2 26.2362 105.594 26.1575 105.011 26.0001C104.429 25.827 103.894 25.5908 103.406 25.2918C102.918 24.977 102.493 24.5992 102.131 24.1584L103.784 22.5057C104.177 22.9621 104.626 23.3084 105.129 23.5445C105.649 23.7649 106.231 23.8751 106.877 23.8751C107.459 23.8751 107.9 23.7885 108.199 23.6154C108.498 23.4422 108.648 23.1904 108.648 22.8598C108.648 22.5135 108.506 22.2459 108.223 22.057C107.939 21.8682 107.569 21.7108 107.113 21.5848C106.672 21.4432 106.2 21.3015 105.696 21.1598C105.208 21.0182 104.736 20.8293 104.279 20.5932C103.839 20.3413 103.477 20.0029 103.193 19.5779C102.91 19.1529 102.768 18.602 102.768 17.9251C102.768 17.201 102.934 16.5793 103.264 16.0598C103.61 15.5404 104.091 15.139 104.704 14.8557C105.334 14.5723 106.082 14.4307 106.948 14.4307C107.86 14.4307 108.663 14.5959 109.356 14.9265C110.064 15.2413 110.654 15.7214 111.127 16.3668L109.474 18.0195C109.143 17.6103 108.766 17.3033 108.341 17.0987C107.916 16.8941 107.428 16.7918 106.877 16.7918C106.357 16.7918 105.956 16.8705 105.673 17.0279C105.389 17.1853 105.248 17.4135 105.248 17.7126C105.248 18.0274 105.389 18.2714 105.673 18.4445C105.956 18.6177 106.318 18.7672 106.759 18.8932C107.215 19.0191 107.687 19.1607 108.175 19.3182C108.679 19.4598 109.151 19.6645 109.592 19.932C110.048 20.1839 110.418 20.5302 110.702 20.9709C110.985 21.3959 111.127 21.9547 111.127 22.6473C111.127 23.7492 110.741 24.6228 109.97 25.2682C109.198 25.9135 108.152 26.2362 106.829 26.2362Z" fill="white"/>
<path d="M95.7755 26.2362C94.6422 26.2362 93.619 25.9844 92.7061 25.4807C91.8088 24.9612 91.0926 24.2529 90.5574 23.3557C90.038 22.4584 89.7783 21.451 89.7783 20.3334C89.7783 19.2158 90.038 18.2163 90.5574 17.3348C91.0769 16.4376 91.7773 15.7293 92.6588 15.2098C93.5561 14.6904 94.5477 14.4307 95.6338 14.4307C96.6885 14.4307 97.6172 14.6746 98.4199 15.1626C99.2385 15.6506 99.876 16.3195 100.332 17.1695C100.804 18.0195 101.041 18.9876 101.041 20.0737C101.041 20.2626 101.025 20.4594 100.993 20.664C100.978 20.8529 100.946 21.0654 100.899 21.3015H91.5963V19.1765H99.5533L98.5852 20.0265C98.5537 19.3339 98.4199 18.7515 98.1838 18.2793C97.9477 17.807 97.6093 17.445 97.1686 17.1932C96.7436 16.9413 96.2162 16.8154 95.5866 16.8154C94.9255 16.8154 94.351 16.957 93.863 17.2404C93.375 17.5237 92.9973 17.9251 92.7297 18.4445C92.4621 18.9482 92.3283 19.5543 92.3283 20.2626C92.3283 20.9709 92.4699 21.5927 92.7533 22.1279C93.0366 22.6631 93.438 23.0802 93.9574 23.3793C94.4769 23.6626 95.075 23.8043 95.7519 23.8043C96.3343 23.8043 96.8695 23.702 97.3574 23.4973C97.8611 23.2927 98.2861 22.9936 98.6324 22.6001L100.285 24.2765C99.7343 24.9219 99.0653 25.4098 98.2783 25.7404C97.4912 26.0709 96.657 26.2362 95.7755 26.2362Z" fill="white"/>
<path d="M85.0225 26V9H87.6197V26H85.0225Z" fill="white"/>
<path d="M77.675 26.2362C76.5416 26.2362 75.5185 25.9844 74.6055 25.4807C73.7083 24.9612 72.9921 24.2529 72.4569 23.3557C71.9375 22.4584 71.6777 21.451 71.6777 20.3334C71.6777 19.2158 71.9375 18.2163 72.4569 17.3348C72.9763 16.4376 73.6768 15.7293 74.5583 15.2098C75.4555 14.6904 76.4472 14.4307 77.5333 14.4307C78.5879 14.4307 79.5166 14.6746 80.3194 15.1626C81.1379 15.6506 81.7754 16.3195 82.2319 17.1695C82.7041 18.0195 82.9402 18.9876 82.9402 20.0737C82.9402 20.2626 82.9245 20.4594 82.893 20.664C82.8773 20.8529 82.8458 21.0654 82.7986 21.3015H73.4958V19.1765H81.4527L80.4847 20.0265C80.4532 19.3339 80.3194 18.7515 80.0833 18.2793C79.8472 17.807 79.5088 17.445 79.068 17.1932C78.643 16.9413 78.1157 16.8154 77.4861 16.8154C76.825 16.8154 76.2504 16.957 75.7625 17.2404C75.2745 17.5237 74.8967 17.9251 74.6291 18.4445C74.3615 18.9482 74.2277 19.5543 74.2277 20.2626C74.2277 20.9709 74.3694 21.5927 74.6527 22.1279C74.9361 22.6631 75.3375 23.0802 75.8569 23.3793C76.3763 23.6626 76.9745 23.8043 77.6513 23.8043C78.2338 23.8043 78.7689 23.702 79.2569 23.4973C79.7606 23.2927 80.1856 22.9936 80.5319 22.6001L82.1847 24.2765C81.6338 24.9219 80.9648 25.4098 80.1777 25.7404C79.3907 26.0709 78.5564 26.2362 77.675 26.2362Z" fill="white"/>
<path d="M64.5007 26.2363C63.3044 26.2363 62.1947 26.0238 61.1716 25.5988C60.1642 25.1581 59.2827 24.5521 58.5271 23.7808C57.7716 22.9937 57.1892 22.0886 56.7799 21.0655C56.3706 20.0266 56.166 18.9169 56.166 17.7363C56.166 16.5558 56.3706 15.4539 56.7799 14.4308C57.1892 13.3919 57.7716 12.4868 58.5271 11.7155C59.2827 10.9442 60.1642 10.3382 61.1716 9.89745C62.1947 9.4567 63.3044 9.23633 64.5007 9.23633C65.8387 9.23633 66.9956 9.4567 67.9716 9.89745C68.9475 10.3382 69.8132 10.9363 70.5688 11.6919L68.7271 13.5335C68.2392 12.9984 67.641 12.5812 66.9327 12.2821C66.2401 11.9831 65.4294 11.8335 64.5007 11.8335C63.6822 11.8335 62.9345 11.9752 62.2577 12.2585C61.5808 12.5419 60.9906 12.9511 60.4868 13.4863C59.9989 14.0058 59.6211 14.6275 59.3535 15.3516C59.0859 16.0757 58.9521 16.8706 58.9521 17.7363C58.9521 18.6021 59.0859 19.397 59.3535 20.121C59.6211 20.8451 59.9989 21.4747 60.4868 22.0099C60.9906 22.5294 61.5808 22.9308 62.2577 23.2141C62.9345 23.4974 63.6822 23.6391 64.5007 23.6391C65.5081 23.6391 66.3581 23.4896 67.0507 23.1905C67.7591 22.8757 68.3572 22.4507 68.8452 21.9155L70.6868 23.7571C69.9313 24.5284 69.0419 25.1345 68.0188 25.5752C66.9956 26.0159 65.823 26.2363 64.5007 26.2363Z" fill="white"/>
</g>
<defs>
<clipPath id="clip0_889_1113">
<rect width="155" height="34" fill="white" transform="translate(0.5 0.5)"/>
</clipPath>
</defs>
</svg>
