<svg width="156" height="35" viewBox="0 0 156 35" fill="none" xmlns="http://www.w3.org/2000/svg">
<g clip-path="url(#clip0_889_1091)">
<path d="M0.5 2.5C0.5 2.5 0.5 17.2889 15.2889 17.2889C15.2889 2.5 0.5 2.5 0.5 2.5Z" fill="white"/>
<path d="M30.078 2.5C30.078 2.5 15.2891 2.5 15.2891 17.2889C30.078 17.2889 30.078 2.5 30.078 2.5Z" fill="white"/>
<path d="M0.5 32.0777C0.5 32.0777 15.2889 32.0777 15.2889 17.2888C0.5 17.2888 0.5 32.0777 0.5 32.0777Z" fill="white"/>
<path d="M30.078 32.0777C30.078 32.0777 30.078 17.2888 15.2891 17.2888C15.2891 32.0777 30.078 32.0777 30.078 32.0777Z" fill="white"/>
<path d="M43.2305 24.9074V9.26294H53.7722V11.99H46.5381V15.7178H53.2298V18.4449H46.5381V22.1803H53.8027V24.9074H43.2305Z" fill="white"/>
<path d="M60.8893 25.1365C59.6875 25.1365 58.6537 24.8818 57.788 24.3726C56.9273 23.8582 56.2653 23.1453 55.8018 22.2337C55.3435 21.3221 55.1143 20.273 55.1143 19.0865C55.1143 17.8846 55.3461 16.8305 55.8095 15.924C56.278 15.0124 56.9426 14.302 57.8032 13.7927C58.6639 13.2784 59.6875 13.0212 60.8741 13.0212C61.8977 13.0212 62.794 13.2071 63.563 13.5788C64.3319 13.9506 64.9405 14.4726 65.3886 15.1448C65.8368 15.817 66.0838 16.6064 66.1296 17.5129H63.0588C62.9722 16.9272 62.743 16.4562 62.3713 16.0997C62.0046 15.7381 61.5234 15.5573 60.9275 15.5573C60.4234 15.5573 59.9829 15.6948 59.606 15.9698C59.2342 16.2397 58.944 16.6344 58.7352 17.1538C58.5264 17.6733 58.422 18.3022 58.422 19.0406C58.422 19.7893 58.5238 20.4258 58.7275 20.9504C58.9363 21.4749 59.2292 21.8747 59.606 22.1497C59.9829 22.4247 60.4234 22.5622 60.9275 22.5622C61.2993 22.5622 61.6329 22.4858 61.9282 22.333C62.2287 22.1802 62.4757 21.9587 62.6692 21.6684C62.8678 21.373 62.9977 21.0191 63.0588 20.6066H66.1296C66.0787 21.5029 65.8342 22.2923 65.3963 22.9747C64.9634 23.652 64.365 24.1816 63.6012 24.5636C62.8373 24.9455 61.9333 25.1365 60.8893 25.1365Z" fill="white"/>
<path d="M70.7142 18.1241V24.9074H67.46V9.26294H70.6225V15.2442H70.76C71.0249 14.5516 71.4526 14.0093 72.0434 13.6171C72.6341 13.2199 73.3751 13.0213 74.2663 13.0213C75.0811 13.0213 75.7915 13.1995 76.3975 13.556C77.0086 13.9074 77.4823 14.4141 77.8184 15.0762C78.1596 15.7331 78.3276 16.5199 78.3225 17.4366V24.9074H75.0684V18.0171C75.0735 17.294 74.8901 16.7312 74.5184 16.3289C74.1517 15.9266 73.6374 15.7255 72.9753 15.7255C72.5323 15.7255 72.1401 15.8197 71.7989 16.0081C71.4628 16.1965 71.198 16.4715 71.0045 16.8331C70.8161 17.1896 70.7193 17.6199 70.7142 18.1241Z" fill="white"/>
<path d="M85.4313 25.1365C84.2447 25.1365 83.2185 24.8844 82.3528 24.3802C81.4922 23.871 80.8275 23.1631 80.359 22.2566C79.8904 21.345 79.6562 20.2883 79.6562 19.0865C79.6562 17.8744 79.8904 16.8152 80.359 15.9087C80.8275 14.9971 81.4922 14.2893 82.3528 13.7851C83.2185 13.2758 84.2447 13.0212 85.4313 13.0212C86.6179 13.0212 87.6415 13.2758 88.5021 13.7851C89.3678 14.2893 90.0349 14.9971 90.5034 15.9087C90.9719 16.8152 91.2063 17.8744 91.2063 19.0865C91.2063 20.2883 90.9719 21.345 90.5034 22.2566C90.0349 23.1631 89.3678 23.871 88.5021 24.3802C87.6415 24.8844 86.6179 25.1365 85.4313 25.1365ZM85.4465 22.6156C85.9863 22.6156 86.4371 22.4629 86.7986 22.1573C87.1602 21.8467 87.4327 21.424 87.616 20.8893C87.8044 20.3545 87.8986 19.746 87.8986 19.0636C87.8986 18.3812 87.8044 17.7726 87.616 17.2379C87.4327 16.7031 87.1602 16.2805 86.7986 15.9698C86.4371 15.6592 85.9863 15.5038 85.4465 15.5038C84.9015 15.5038 84.4432 15.6592 84.0715 15.9698C83.7048 16.2805 83.4273 16.7031 83.2389 17.2379C83.0556 17.7726 82.9639 18.3812 82.9639 19.0636C82.9639 19.746 83.0556 20.3545 83.2389 20.8893C83.4273 21.424 83.7048 21.8467 84.0715 22.1573C84.4432 22.4629 84.9015 22.6156 85.4465 22.6156Z" fill="white"/>
<path d="M99.6831 9.26294L103.464 21.1491H103.609L107.398 9.26294H111.065L105.672 24.9074H101.409L96.0088 9.26294H99.6831Z" fill="white"/>
<path d="M114.177 25.1288C113.429 25.1288 112.762 24.999 112.176 24.7393C111.59 24.4744 111.127 24.0849 110.786 23.5705C110.45 23.0511 110.282 22.4043 110.282 21.6302C110.282 20.9784 110.401 20.4309 110.641 19.9879C110.88 19.5448 111.206 19.1883 111.618 18.9184C112.031 18.6485 112.499 18.4448 113.024 18.3073C113.554 18.1698 114.109 18.073 114.689 18.017C115.372 17.9457 115.922 17.8795 116.339 17.8184C116.757 17.7522 117.06 17.6555 117.248 17.5281C117.437 17.4008 117.531 17.2124 117.531 16.9629V16.917C117.531 16.4332 117.378 16.0589 117.072 15.7941C116.772 15.5293 116.344 15.3969 115.789 15.3969C115.204 15.3969 114.738 15.5268 114.391 15.7865C114.045 16.0411 113.816 16.3619 113.704 16.749L110.694 16.5045C110.847 15.7916 111.147 15.1754 111.595 14.6559C112.044 14.1314 112.622 13.7291 113.329 13.449C114.042 13.1638 114.867 13.0212 115.804 13.0212C116.456 13.0212 117.08 13.0976 117.676 13.2504C118.277 13.4031 118.809 13.6399 119.272 13.9608C119.741 14.2816 120.11 14.6941 120.38 15.1983C120.65 15.6974 120.785 16.2957 120.785 16.9934V24.9073H117.699V23.2802H117.607C117.419 23.6469 117.167 23.9703 116.851 24.2504C116.535 24.5254 116.156 24.7418 115.713 24.8997C115.27 25.0524 114.758 25.1288 114.177 25.1288ZM115.109 22.883C115.588 22.883 116.011 22.7888 116.377 22.6004C116.744 22.4068 117.032 22.1471 117.241 21.8212C117.449 21.4953 117.554 21.1261 117.554 20.7136V19.4684C117.452 19.5346 117.312 19.5957 117.134 19.6518C116.96 19.7027 116.764 19.7511 116.545 19.7969C116.326 19.8376 116.107 19.8758 115.888 19.9115C115.669 19.942 115.471 19.97 115.293 19.9955C114.911 20.0515 114.577 20.1406 114.292 20.2629C114.007 20.3851 113.785 20.5506 113.627 20.7594C113.469 20.9631 113.391 21.2177 113.391 21.5233C113.391 21.9663 113.551 22.305 113.872 22.5393C114.198 22.7684 114.61 22.883 115.109 22.883Z" fill="white"/>
<path d="M125.811 9.26294V24.9074H122.557V9.26294H125.811Z" fill="white"/>
<path d="M130.919 9.26294V24.9074H127.665V9.26294H130.919Z" fill="white"/>
<path d="M138.12 25.1365C136.913 25.1365 135.874 24.892 135.003 24.4031C134.138 23.9092 133.471 23.2115 133.002 22.3101C132.533 21.4036 132.299 20.3316 132.299 19.0941C132.299 17.8872 132.533 16.8279 133.002 15.9163C133.471 15.0048 134.13 14.2943 134.98 13.7851C135.836 13.2758 136.839 13.0212 137.99 13.0212C138.764 13.0212 139.485 13.146 140.152 13.3955C140.824 13.6399 141.41 14.0092 141.909 14.5031C142.413 14.9971 142.805 15.6184 143.085 16.367C143.365 17.1105 143.505 17.9814 143.505 18.9795V19.8733H133.598V17.8566H140.442C140.442 17.3881 140.34 16.973 140.137 16.6115C139.933 16.2499 139.65 15.9673 139.289 15.7636C138.932 15.5548 138.517 15.4504 138.044 15.4504C137.55 15.4504 137.112 15.5649 136.73 15.7941C136.353 16.0182 136.058 16.3212 135.844 16.7031C135.63 17.08 135.52 17.5001 135.515 17.9636V19.8809C135.515 20.4615 135.622 20.9631 135.836 21.3858C136.055 21.8085 136.363 22.1344 136.76 22.3636C137.158 22.5927 137.629 22.7073 138.174 22.7073C138.535 22.7073 138.866 22.6564 139.167 22.5545C139.467 22.4527 139.724 22.2999 139.938 22.0962C140.152 21.8925 140.315 21.643 140.427 21.3476L143.437 21.5462C143.284 22.2693 142.971 22.9008 142.497 23.4406C142.029 23.9754 141.423 24.393 140.679 24.6934C139.941 24.9888 139.088 25.1365 138.12 25.1365Z" fill="white"/>
<path d="M146.57 29.3074C146.158 29.3074 145.771 29.2743 145.409 29.2081C145.053 29.147 144.757 29.0681 144.523 28.9713L145.256 26.5421C145.638 26.6593 145.982 26.7229 146.288 26.7331C146.598 26.7433 146.866 26.672 147.09 26.5192C147.319 26.3664 147.505 26.1067 147.647 25.74L147.838 25.2435L143.629 13.1741H147.051L149.481 21.7907H149.603L152.055 13.1741H155.5L150.94 26.1755C150.721 26.8069 150.423 27.3569 150.046 27.8255C149.674 28.2991 149.203 28.6632 148.633 28.9178C148.062 29.1775 147.375 29.3074 146.57 29.3074Z" fill="white"/>
</g>
<defs>
<clipPath id="clip0_889_1091">
<rect width="155" height="34" fill="white" transform="translate(0.5 0.5)"/>
</clipPath>
</defs>
</svg>
