<svg width="1264" height="560" viewBox="0 0 1264 560" fill="none" xmlns="http://www.w3.org/2000/svg">
<path opacity="0.5" fill-rule="evenodd" clip-rule="evenodd" d="M-15.5822 -401H1276.49V-399.453H-15.5822V-401ZM-48 -366.964V927.834H-46.4563V-366.964H-48ZM75.4952 -275.693V-153.484H-15.5786V-151.937H75.4952V-29.7267H-15.5796V-28.1798H75.4952V94.0302H-15.5805V95.5765H75.4952V217.786H-15.5805V219.333H75.4952V341.541H-15.5786V343.089H75.4952V465.297H-15.5807V466.844H75.4952V589.046H-15.5813V590.594H75.4952V712.803H-15.5793V714.349H75.4952L75.4951 836.565H-15.5786V838.112H75.4951V927.834H77.0388V838.112H198.99V927.834H200.534V838.112H322.485V927.834H324.029V838.112H445.981V927.834H447.524V838.112H569.477V927.834H571.02V838.112H692.973V927.834H694.517V838.112H816.466V927.834H818.01V838.112H939.962V927.834H941.506V838.112H1063.46V927.834H1065V838.112H1186.96V927.834H1188.5V838.112H1276.5V836.565H1188.5V714.349H1276.5V712.803H1188.5V590.594H1276.49V589.048H1188.5V466.844H1276.49V465.297H1188.5V343.089H1276.5V341.541H1188.5V219.333H1276.49V217.786H1188.5V95.5775H1276.49V94.0302H1188.5V-28.1796H1276.5V-29.7266H1188.5V-151.937H1276.5V-153.484H1188.5V-275.693H1276.49V-277.24H1188.5V-366.963H1186.96V-277.24H1065.01V-366.963H1063.46V-277.24H941.506V-366.963H939.962V-277.24H818.01V-366.964H816.466V-277.24H694.517V-366.964H692.973V-277.24H571.021V-366.963H569.477V-277.24H447.524V-366.963H445.981V-277.24H324.029V-366.964H322.486V-277.24H200.534V-366.964H198.99V-277.24H77.0389V-366.964H75.4952V-277.24H-15.5805V-275.693H75.4952ZM198.99 836.565H77.0388V714.349H198.99V836.565ZM322.485 836.565H200.534V714.349H322.485V836.565ZM445.981 836.565H324.029V714.349H445.981V836.565ZM569.477 836.565H447.524V714.349H569.477V836.565ZM692.973 836.565H571.02L571.021 714.349H692.973V836.565ZM816.466 836.565H694.517V714.349H816.466V836.565ZM939.962 836.565H818.01V714.349H939.962V836.565ZM1063.46 836.565H941.506V714.349H1063.46V836.565ZM1186.96 836.565H1065L1065.01 714.349H1186.96V836.565ZM1186.96 712.803V590.594H1065.01V712.803H1186.96ZM1063.46 712.803V590.594H941.506V712.803H1063.46ZM939.962 712.803V590.594H818.01V712.803H939.962ZM816.466 712.803V590.594H694.517V712.803H816.466ZM692.973 712.803V590.594H571.021V712.803H692.973ZM569.477 712.803V590.594H447.524V712.803H569.477ZM445.981 712.803V590.594H324.029V712.803H445.981ZM322.485 712.803V590.594H200.534V712.803H322.485ZM198.99 712.803V590.594H77.0388V712.803H198.99ZM198.99 589.046H77.0388V466.844H198.99V589.046ZM322.485 589.046H200.534V466.844H322.486L322.485 589.046ZM445.981 589.046H324.029V466.844H445.981V589.046ZM569.477 589.046H447.524V466.844H569.477V589.046ZM692.973 589.046H571.021V466.844H692.973V589.046ZM816.466 589.046H694.517V466.844H816.466V589.046ZM939.962 589.046H818.01V466.844H939.962V589.046ZM1063.46 589.048L941.506 589.046V466.844H1063.46V589.048ZM1186.96 589.048H1065.01V466.844H1186.96V589.048ZM1186.96 465.297V343.089H1065.01V465.297H1186.96ZM1063.46 465.297V343.089H941.506V465.297H1063.46ZM939.962 465.297V343.089H818.01V465.297H939.962ZM816.466 465.297V343.089H694.517V465.297H816.466ZM692.973 465.297V343.089H571.021V465.297H692.973ZM569.477 465.297V343.089H447.524V465.297H569.477ZM445.981 465.297V343.089H324.029V465.297H445.981ZM322.486 465.297V343.089H200.534V465.297H322.486ZM198.99 465.297V343.089H77.0388V465.297H198.99ZM198.99 341.541H77.0388L77.0389 219.333H198.99V341.541ZM322.486 341.541H200.534V219.333H322.486V341.541ZM445.981 341.541H324.029V219.333H445.981V341.541ZM569.477 341.541H447.524V219.333H569.477V341.541ZM692.973 341.541H571.021V219.333H692.973V341.541ZM816.466 341.541H694.517V219.333H816.466V341.541ZM939.962 341.541H818.01V219.333H939.962V341.541ZM1063.46 341.541H941.506V219.333H1063.46V341.541ZM1186.96 341.541H1065.01V219.333H1186.96V341.541ZM1186.96 217.786V95.5775L1065.01 95.5765V217.786H1186.96ZM1063.46 217.786V95.5765H941.506V217.786H1063.46ZM939.962 217.786V95.5765H818.01V217.786H939.962ZM816.466 217.786V95.5765H694.517V217.786H816.466ZM692.973 217.786V95.5765H571.021V217.786H692.973ZM569.477 217.786V95.5765H447.524V217.786H569.477ZM445.981 217.786V95.5765H324.029V217.786H445.981ZM322.486 217.786V95.5765H200.534V217.786H322.486ZM198.99 217.786V95.5765H77.0389V217.786H198.99ZM198.99 94.0302H77.0389V-28.1798L198.99 -28.1797V94.0302ZM322.486 94.0302H200.534V-28.1797H322.486V94.0302ZM445.981 94.0302H324.029V-28.1797H445.981V94.0302ZM569.477 94.0302H447.524V-28.1797L569.477 -28.1797V94.0302ZM692.973 94.0302H571.021V-28.1797H692.973V94.0302ZM816.466 94.0302H694.517V-28.1797L816.466 -28.1797V94.0302ZM939.962 94.0302H818.01V-28.1797H939.962V94.0302ZM1063.46 94.0302H941.506V-28.1797H1063.46V94.0302ZM1186.96 94.0302H1065.01V-28.1797L1186.96 -28.1796V94.0302ZM1186.96 -29.7266V-151.937H1065.01V-29.7266L1186.96 -29.7266ZM1063.46 -29.7266V-151.937H941.506V-29.7266H1063.46ZM939.962 -29.7266V-151.937H818.01V-29.7266H939.962ZM816.466 -29.7266V-151.937H694.517V-29.7267L816.466 -29.7266ZM692.973 -29.7267V-151.937H571.021V-29.7267H692.973ZM569.477 -29.7267V-151.937H447.524V-29.7267L569.477 -29.7267ZM445.981 -29.7267V-151.937H324.029V-29.7267H445.981ZM322.486 -29.7267V-151.937H200.534V-29.7267H322.486ZM198.99 -29.7267V-151.937H77.0389V-29.7267L198.99 -29.7267ZM198.99 -153.484H77.0389V-275.693H198.99V-153.484ZM322.486 -153.484H200.534V-275.693H322.486V-153.484ZM445.981 -153.484H324.029V-275.693H445.981V-153.484ZM569.477 -153.484H447.524V-275.693H569.477V-153.484ZM692.973 -153.484H571.021V-275.693H692.973V-153.484ZM816.466 -153.484H694.517V-275.693H816.466V-153.484ZM939.962 -153.484H818.01V-275.693H939.962V-153.484ZM1063.46 -153.484H941.506V-275.693H1063.46V-153.484ZM1186.96 -153.484H1065.01V-275.693H1186.96V-153.484ZM1310.46 -366.963V927.834H1312V-366.963H1310.46ZM1276.49 960.322H-15.5805V961.869H1276.49V960.322Z" fill="url(#paint0_radial_959_427)" fill-opacity="0.1"/>
<defs>
<radialGradient id="paint0_radial_959_427" cx="0" cy="0" r="1" gradientUnits="userSpaceOnUse" gradientTransform="translate(632 280.435) rotate(90) scale(681.435 680)">
<stop stop-color="white"/>
<stop offset="1" stop-color="white" stop-opacity="0"/>
</radialGradient>
</defs>
</svg>
