<svg width="156" height="35" viewBox="0 0 156 35" fill="none" xmlns="http://www.w3.org/2000/svg">
<path d="M128.5 18.4491C128.5 19.2198 128.271 19.8042 127.812 20.2026C127.361 20.6009 126.764 20.8 126.019 20.8H120.785C120.984 21.5447 121.339 22.1724 121.85 22.6833C122.361 23.1855 123.097 23.4366 124.058 23.4366C124.439 23.4366 124.816 23.3587 125.188 23.2028C125.569 23.0383 125.924 22.8478 126.253 22.6314C126.591 22.4149 126.885 22.2287 127.136 22.0729C127.387 21.9083 127.578 21.8261 127.708 21.8261C127.959 21.8261 128.141 21.917 128.253 22.0988C128.366 22.272 128.422 22.4712 128.422 22.6963C128.422 23.4843 128.236 24.177 127.864 24.7744C127.5 25.3632 127.015 25.8525 126.409 26.2421C125.811 26.6318 125.153 26.9218 124.435 27.1123C123.725 27.3115 123.023 27.4111 122.331 27.4111C120.971 27.4111 119.772 27.1296 118.733 26.5668C117.694 26.004 116.88 25.216 116.291 24.2029C115.711 23.1812 115.421 21.9819 115.421 20.6052C115.421 19.1332 115.702 17.8517 116.265 16.7607C116.837 15.6696 117.655 14.8254 118.72 14.2279C119.785 13.6218 121.062 13.3188 122.551 13.3188C123.582 13.3188 124.547 13.5136 125.448 13.9032C126.357 14.2929 127.093 14.8687 127.656 15.6307C128.219 16.3927 128.5 17.3321 128.5 18.4491ZM120.551 18.7998C120.551 18.8951 120.551 18.9903 120.551 19.0856H121.902C122.231 19.0856 122.456 19.012 122.577 18.8648C122.699 18.7089 122.759 18.4751 122.759 18.1634C122.759 17.9556 122.733 17.6828 122.681 17.3451C122.629 17.0074 122.525 16.7044 122.37 16.4359C122.222 16.1675 122.006 16.0333 121.72 16.0333C121.46 16.0333 121.253 16.1415 121.097 16.358C120.941 16.5658 120.824 16.8299 120.746 17.1503C120.668 17.462 120.616 17.7694 120.59 18.0725C120.564 18.3755 120.551 18.618 120.551 18.7998Z" fill="white"/>
<path d="M98.873 20.813C98.873 19.4969 99.1285 18.2716 99.6394 17.1373C100.15 15.9943 100.895 15.0722 101.873 14.3708C102.852 13.6694 104.047 13.3188 105.458 13.3188C106.307 13.3188 107.082 13.5006 107.783 13.8643V12.7603C107.783 12.3793 107.718 12.0935 107.588 11.903C107.467 11.7125 107.324 11.561 107.16 11.4484C107.004 11.3272 106.861 11.1973 106.731 11.0588C106.61 10.9116 106.549 10.6951 106.549 10.4094C106.549 10.0544 106.653 9.78594 106.861 9.6041C107.077 9.41361 107.333 9.26208 107.627 9.14951L110.446 8.01953C110.775 7.88099 111.112 7.75977 111.459 7.65586C111.805 7.55195 112.16 7.5 112.524 7.5C112.879 7.5 113.147 7.62555 113.329 7.87666C113.52 8.11911 113.615 8.40485 113.615 8.73389V23.2158C113.615 23.6401 113.645 23.9345 113.706 24.099C113.766 24.2636 113.944 24.5017 114.238 24.8134C114.411 24.9952 114.533 25.1511 114.602 25.281C114.671 25.4022 114.706 25.5927 114.706 25.8525C114.706 26.2248 114.585 26.5149 114.342 26.7227C114.1 26.9305 113.797 27.0344 113.433 27.0344H110.524C110.039 27.0344 109.571 26.8872 109.121 26.5928C108.679 26.2897 108.368 25.9087 108.186 25.4498C107.658 26.0213 107.056 26.4932 106.38 26.8655C105.714 27.2292 104.965 27.4111 104.133 27.4111C103.25 27.4111 102.475 27.2206 101.809 26.8396C101.15 26.4499 100.605 25.9347 100.172 25.294C99.7389 24.6445 99.4141 23.9302 99.1977 23.1509C98.9812 22.3716 98.873 21.5923 98.873 20.813ZM104.9 20.1636C104.9 20.4753 104.921 20.852 104.965 21.2936C105.017 21.7265 105.108 22.1551 105.237 22.5794C105.376 22.995 105.575 23.3457 105.835 23.6315C106.103 23.9085 106.45 24.0471 106.874 24.0471C107.203 24.0471 107.506 23.9345 107.783 23.7094V16.7736C107.636 16.6264 107.471 16.5095 107.29 16.423C107.108 16.3277 106.909 16.2801 106.692 16.2801C106.294 16.2801 105.973 16.4273 105.731 16.7217C105.497 17.0074 105.32 17.3668 105.198 17.7997C105.077 18.224 104.995 18.6526 104.952 19.0856C104.917 19.5185 104.9 19.8778 104.9 20.1636Z" fill="white"/>
<path d="M95.8597 13.3187C96.2147 13.3187 96.4875 13.4399 96.678 13.6823C96.8771 13.9248 96.9767 14.2148 96.9767 14.5525V23.1248C96.9767 23.3673 96.9854 23.614 97.0027 23.8652C97.0287 24.1076 97.1283 24.3197 97.3014 24.5016C97.5266 24.744 97.7127 24.9345 97.8599 25.0731C98.0158 25.2116 98.0937 25.4714 98.0937 25.8524C98.0937 26.2334 97.9725 26.5278 97.73 26.7356C97.4963 26.9347 97.1932 27.0343 96.8209 27.0343H91.3008C90.9285 27.0343 90.6211 26.9347 90.3787 26.7356C90.1449 26.5364 90.028 26.242 90.028 25.8524C90.028 25.48 90.1016 25.2203 90.2488 25.0731C90.396 24.9172 90.5865 24.7267 90.8203 24.5016C90.9934 24.3284 91.0887 24.1119 91.106 23.8522C91.132 23.5924 91.145 23.3499 91.145 23.1248V18.5919C91.145 18.4187 91.132 18.2412 91.106 18.0594C91.08 17.8689 91.0064 17.7087 90.8852 17.5788C90.8506 17.5355 90.8073 17.5009 90.7553 17.4749C90.712 17.4489 90.6731 17.4186 90.6384 17.384C90.4479 17.1848 90.2704 17.0247 90.1059 16.9034C89.9501 16.7735 89.8721 16.5484 89.8721 16.228C89.8721 15.8817 89.9804 15.6133 90.1968 15.4228C90.4133 15.2323 90.6687 15.0807 90.9631 14.9682L93.7686 13.8382C94.0977 13.7083 94.4397 13.5914 94.7947 13.4875C95.1497 13.3749 95.5047 13.3187 95.8597 13.3187ZM93.9115 13.2667C93.3573 13.2667 92.7988 13.1844 92.236 13.0199C91.6732 12.8554 91.2013 12.5827 90.8203 12.2017C90.4479 11.812 90.2618 11.2882 90.2618 10.6301C90.2618 9.97201 90.4523 9.4568 90.8333 9.08447C91.2143 8.70348 91.6862 8.43506 92.249 8.2792C92.8118 8.12334 93.366 8.04541 93.9115 8.04541C94.457 8.04541 95.0112 8.12334 95.574 8.2792C96.1455 8.43506 96.6217 8.70348 97.0027 9.08447C97.3923 9.4568 97.5872 9.97201 97.5872 10.6301C97.5872 11.2968 97.3967 11.825 97.0157 12.2147C96.6347 12.5956 96.1585 12.8684 95.587 13.0329C95.0241 13.1888 94.4657 13.2667 93.9115 13.2667Z" fill="white"/>
<path d="M83.6629 15.5398C83.3685 15.5398 83.1044 15.6047 82.8706 15.7346C82.6368 15.8645 82.5199 16.0983 82.5199 16.4359C82.5199 16.713 82.5848 16.9252 82.7147 17.0724C82.8446 17.2196 83.0308 17.3451 83.2732 17.449C83.533 17.5616 83.8057 17.6439 84.0915 17.6958C84.3772 17.7478 84.6543 17.804 84.9227 17.8647C85.7194 18.0378 86.464 18.3322 87.1567 18.7479C87.8494 19.1548 88.4079 19.683 88.8322 20.3324C89.2652 20.9732 89.4816 21.7352 89.4816 22.6184C89.4816 23.8046 89.2132 24.7485 88.6764 25.4498C88.1395 26.1512 87.4252 26.6534 86.5333 26.9565C85.6501 27.2595 84.6803 27.4111 83.6239 27.4111C83.3555 27.4111 82.9832 27.3764 82.5069 27.3072C82.0393 27.2379 81.693 27.1426 81.4679 27.0214H81.4549C81.3683 26.9781 81.2254 26.9305 81.0263 26.8785C80.8271 26.8266 80.6799 26.8006 80.5846 26.8006C80.3162 26.8006 80.0868 26.9045 79.8963 27.1123C79.7058 27.3288 79.472 27.437 79.1949 27.437C78.8226 27.437 78.5282 27.3158 78.3117 27.0734C78.1039 26.8309 77.9437 26.5452 77.8311 26.2161C77.7272 25.8784 77.632 25.5667 77.5454 25.281C77.4848 25.0385 77.4155 24.8004 77.3376 24.5666C77.2596 24.3242 77.2207 24.0774 77.2207 23.8263C77.2207 23.376 77.3419 23.0124 77.5844 22.7353C77.8268 22.4582 78.1775 22.3196 78.6364 22.3196C79.0867 22.3196 79.459 22.4192 79.7534 22.6184C80.0478 22.8089 80.3076 23.047 80.5327 23.3327C80.7665 23.6185 81.0003 23.9085 81.2341 24.2029C81.4765 24.4887 81.7666 24.7311 82.1043 24.9303C82.442 25.1208 82.8663 25.216 83.3771 25.216C83.7321 25.216 84.0006 25.1121 84.1824 24.9043C84.3642 24.6878 84.4552 24.4108 84.4552 24.0731C84.4552 23.5882 84.3253 23.2764 84.0655 23.1379C83.8057 22.9994 83.4724 22.8911 83.0654 22.8132C82.3208 22.666 81.6107 22.4928 80.9353 22.2937C80.2686 22.0945 79.6755 21.8218 79.1559 21.4754C78.6451 21.1291 78.2381 20.6701 77.935 20.0986C77.6406 19.5272 77.4934 18.7912 77.4934 17.8906C77.4934 16.8256 77.7835 15.9597 78.3637 15.293C78.9438 14.6176 79.6798 14.1197 80.5717 13.7993C81.4722 13.4789 82.3857 13.3188 83.3122 13.3188C83.6672 13.3188 84.0136 13.3317 84.3513 13.3577C84.6976 13.3837 85.0396 13.453 85.3773 13.5655C85.4206 13.5742 85.5202 13.6088 85.6761 13.6694C85.8406 13.7301 86.0008 13.7907 86.1566 13.8513C86.3125 13.9032 86.3904 13.9292 86.3904 13.9292C86.6762 13.9292 86.9186 13.8296 87.1178 13.6305C87.3256 13.4227 87.5724 13.3188 87.8581 13.3188C88.2218 13.3188 88.4902 13.4616 88.6634 13.7474C88.8365 14.0245 88.9578 14.3492 89.027 14.7215C89.105 15.0938 89.1656 15.4099 89.2089 15.6696C89.2435 15.8688 89.2781 16.0723 89.3128 16.2801C89.3474 16.4792 89.3647 16.6784 89.3647 16.8775C89.3647 17.2239 89.2825 17.5529 89.118 17.8647C88.9621 18.1677 88.6807 18.3193 88.2737 18.3193C87.8668 18.3193 87.5074 18.1807 87.1957 17.9036C86.884 17.6179 86.5723 17.2932 86.2605 16.9295C85.9488 16.5658 85.5895 16.2455 85.1825 15.9684C84.7755 15.6826 84.269 15.5398 83.6629 15.5398Z" fill="white"/>
<path d="M71.9084 27.411C70.4278 27.411 69.2588 27.0689 68.4016 26.3849C67.553 25.6922 67.1287 24.5665 67.1287 23.0079V17.358C67.1287 16.9857 67.0465 16.7086 66.8819 16.5268C66.7174 16.3449 66.5269 16.1977 66.3105 16.0852C66.094 15.9639 65.9035 15.8211 65.739 15.6565C65.5745 15.4834 65.4922 15.2236 65.4922 14.8773C65.4922 14.5222 65.6178 14.2452 65.8689 14.046C66.12 13.8382 66.4144 13.7343 66.7521 13.7343H67.3365C67.5876 13.7343 67.8344 13.6087 68.0769 13.3576C68.328 13.0979 68.5791 12.7775 68.8302 12.3965C69.09 12.0155 69.3584 11.6388 69.6355 11.2665C69.9212 10.8855 70.2243 10.5695 70.5446 10.3184C70.865 10.0586 71.2157 9.92871 71.5967 9.92871C72.0296 9.92871 72.3673 10.0499 72.6098 10.2924C72.8522 10.5348 72.9735 10.8725 72.9735 11.3055V13.7343H75.9218C76.2508 13.7343 76.5322 13.8122 76.766 13.9681C76.9998 14.1239 77.1167 14.3837 77.1167 14.7474C77.1167 15.2323 76.9609 15.6003 76.6491 15.8514C76.3461 16.1025 75.9781 16.2713 75.5451 16.3579C75.1122 16.4358 74.7052 16.4748 74.3242 16.4748H72.9735V21.6182C72.9735 22.0425 73.0557 22.4451 73.2202 22.8261C73.3848 23.1984 73.7224 23.3846 74.2333 23.3846C74.571 23.3846 74.8568 23.2893 75.0905 23.0988C75.333 22.8997 75.5581 22.7049 75.7659 22.5144C75.9824 22.3239 76.2119 22.2286 76.4543 22.2286C76.6795 22.2286 76.8353 22.3369 76.9219 22.5533C77.0171 22.7698 77.0648 22.9646 77.0648 23.1378C77.0648 24.0124 76.8007 24.77 76.2725 25.4108C75.7443 26.0515 75.0819 26.5451 74.2853 26.8914C73.4973 27.2378 72.705 27.411 71.9084 27.411Z" fill="white"/>
<path d="M53.1527 27.4111C52.3302 27.4111 51.6418 27.2032 51.0876 26.7876C50.5421 26.3633 50.1351 25.8135 49.8667 25.1381C49.5983 24.4627 49.4641 23.7527 49.4641 23.008V18.592C49.4641 18.2716 49.4381 18.0465 49.3861 17.9166C49.3342 17.7781 49.187 17.6006 48.9445 17.3841C48.754 17.2109 48.5722 17.0507 48.399 16.9035C48.2345 16.7477 48.1523 16.5225 48.1523 16.2281C48.1523 15.8904 48.2605 15.6263 48.477 15.4358C48.7021 15.2367 48.9575 15.0808 49.2433 14.9683L52.1007 13.8383C52.4384 13.6997 52.7761 13.5785 53.1138 13.4746C53.4601 13.3707 53.8195 13.3188 54.1918 13.3188C54.5468 13.3188 54.8196 13.4443 55.0101 13.6954C55.2006 13.9379 55.2958 14.2236 55.2958 14.5526V21.6053C55.2958 21.8477 55.3218 22.1075 55.3737 22.3846C55.4344 22.6617 55.5469 22.8998 55.7114 23.0989C55.876 23.2894 56.1141 23.3847 56.4258 23.3847C56.7462 23.3847 57.0276 23.3154 57.27 23.1769C57.5125 23.0297 57.7333 22.8522 57.9324 22.6444V18.592C57.9324 18.263 57.9021 18.0248 57.8415 17.8776C57.7896 17.7218 57.6294 17.54 57.361 17.3321C57.1618 17.1763 56.9886 17.0247 56.8414 16.8775C56.6942 16.7303 56.6206 16.5139 56.6206 16.2281C56.6206 15.8904 56.7289 15.6263 56.9453 15.4358C57.1705 15.2367 57.4259 15.0808 57.7116 14.9683L60.5691 13.8383C60.9068 13.6997 61.2445 13.5785 61.5822 13.4746C61.9285 13.3707 62.2879 13.3188 62.6602 13.3188C63.0152 13.3188 63.2879 13.44 63.4784 13.6824C63.6776 13.9249 63.7772 14.2149 63.7772 14.5526V23.1249C63.7772 23.3674 63.7858 23.6098 63.8032 23.8523C63.8291 24.0861 63.9287 24.3025 64.1019 24.5017C64.3184 24.7355 64.5088 24.9303 64.6734 25.0862C64.8379 25.242 64.9201 25.4974 64.9201 25.8525C64.9201 26.2421 64.8033 26.5365 64.5695 26.7357C64.3357 26.9348 64.0283 27.0344 63.6473 27.0344H60.686C60.0279 27.0344 59.4477 26.7876 58.9455 26.2941C58.452 25.8005 58.2052 25.229 58.2052 24.5796C57.729 25.0385 57.2094 25.4845 56.6466 25.9174C56.0838 26.3503 55.5036 26.7097 54.9062 26.9954C54.3174 27.2725 53.7329 27.4111 53.1527 27.4111Z" fill="white"/>
<path d="M37.9555 8.52612C39.8085 8.52612 41.4407 8.91577 42.8521 9.69506C44.2721 10.4657 45.3805 11.5524 46.1771 12.9551C46.9823 14.3492 47.385 15.9814 47.385 17.8517C47.385 19.748 46.9997 21.4278 46.229 22.8911C45.4584 24.3458 44.3674 25.4888 42.956 26.32C41.5532 27.1426 39.8864 27.5539 37.9555 27.5539C35.9986 27.5539 34.3144 27.1556 32.903 26.359C31.4916 25.5537 30.4049 24.4281 29.643 22.9821C28.881 21.536 28.5 19.8475 28.5 17.9166C28.5 16.0636 28.9026 14.4314 29.7079 13.02C30.5218 11.6086 31.6388 10.509 33.0589 9.72104C34.4789 8.92442 36.1111 8.52612 37.9555 8.52612ZM40.8129 21.8651C40.8129 20.497 40.6787 19.1678 40.4103 17.8777C40.341 17.5486 40.2284 17.1113 40.0726 16.5658C39.9167 16.0203 39.7176 15.4445 39.4751 14.8384C39.2413 14.2323 38.9686 13.6565 38.6568 13.1109C38.3538 12.5654 38.0161 12.1238 37.6438 11.7861C37.2801 11.4398 36.8904 11.2666 36.4748 11.2666C36.0332 11.2666 35.7172 11.4484 35.5267 11.8121C35.3448 12.1758 35.2323 12.5914 35.189 13.059C35.1543 13.5179 35.137 13.9032 35.137 14.215C35.137 15.2887 35.2236 16.3623 35.3968 17.436C35.5786 18.5011 35.8557 19.5402 36.228 20.5532C36.3319 20.8476 36.4878 21.2286 36.6956 21.6962C36.9121 22.1638 37.1675 22.6314 37.4619 23.0989C37.7563 23.5665 38.0724 23.9605 38.4101 24.2809C38.7564 24.6013 39.1114 24.7614 39.4751 24.7614C39.9167 24.7614 40.2284 24.5839 40.4103 24.2289C40.6008 23.8739 40.7133 23.4669 40.748 23.008C40.7913 22.5491 40.8129 22.1681 40.8129 21.8651Z" fill="white"/>
</svg>
