<svg width="156" height="35" viewBox="0 0 156 35" fill="none" xmlns="http://www.w3.org/2000/svg">
<path d="M121.709 26.8051V8.52539H145.5V12.486H127.326V15.685H141.958V19.6456H127.326V22.8445H145.5V26.8051H121.709Z" fill="white"/>
<path d="M98.3084 26.8051C97.3544 26.8051 96.4719 26.6359 95.661 26.2973C94.8501 25.9588 94.2062 25.5018 93.7292 24.9264C93.2522 24.3509 93.0137 23.7246 93.0137 23.0476V21.3466H98.5588V22.8445H113.155V19.6456H98.3084C97.3544 19.6456 96.4719 19.4763 95.661 19.1378C94.8501 18.7993 94.2062 18.3508 93.7292 17.7922C93.2522 17.2167 93.0137 16.582 93.0137 15.8881V12.2829C93.0137 11.589 93.2522 10.9627 93.7292 10.4041C94.2062 9.82866 94.8501 9.37167 95.661 9.03316C96.4719 8.69464 97.3544 8.52539 98.3084 8.52539H113.477C114.431 8.52539 115.301 8.69464 116.088 9.03316C116.899 9.37167 117.543 9.82866 118.02 10.4041C118.521 10.9627 118.771 11.589 118.771 12.2829V13.9839H113.155V12.486H98.5588V15.685H113.477C114.431 15.685 115.301 15.8542 116.088 16.1927C116.899 16.5312 117.543 16.9882 118.02 17.5637C118.521 18.1223 118.771 18.7485 118.771 19.4425V23.0476C118.771 23.7246 118.521 24.3509 118.02 24.9264C117.543 25.5018 116.899 25.9588 116.088 26.2973C115.301 26.6359 114.431 26.8051 113.477 26.8051H98.3084Z" fill="white"/>
<path d="M66.3145 26.8051V8.5H71.8596V22.8445H92.0726V26.8051H66.3145Z" fill="white"/>
<path d="M42.949 26.8051C41.995 26.8051 41.1126 26.6359 40.3017 26.2973C39.4908 25.9588 38.8468 25.5018 38.3698 24.9264C37.8928 24.3509 37.6543 23.7246 37.6543 23.0476V8.52539H43.1995V22.8445H57.7957V8.52539H63.4125V23.0476C63.4125 23.7246 63.162 24.3509 62.6612 24.9264C62.1842 25.5018 61.5402 25.9588 60.7293 26.2973C59.9423 26.6359 59.0717 26.8051 58.1177 26.8051H42.949Z" fill="white"/>
<path d="M10.5 26.805V8.55078H30.9276C31.9055 8.55078 32.788 8.72003 33.575 9.05855C34.3859 9.39706 35.0299 9.85404 35.5069 10.4295C36.0077 11.005 36.2581 11.6312 36.2581 12.3082V17.0305C36.2581 17.7075 36.0077 18.3338 35.5069 18.9092C35.0299 19.4847 34.3859 19.9417 33.575 20.2802C32.788 20.6187 31.9055 20.788 30.9276 20.788L16.0452 20.8134V26.805H10.5ZM16.0452 16.8274H30.6414V12.4859H16.0452V16.8274Z" fill="white"/>
</svg>
