<svg width="156" height="35" viewBox="0 0 156 35" fill="none" xmlns="http://www.w3.org/2000/svg">
<g clip-path="url(#clip0_889_1131)">
<path d="M28.1923 17.936C25.5769 17.936 22.9615 23.6027 18.6026 23.6027C15.2322 23.6027 12.5 20.8705 12.5 17.5001C12.5 14.1297 15.2322 11.3975 18.6026 11.3975C22.9615 11.3975 25.5769 17.0642 28.1923 17.0642V17.936Z" fill="white"/>
<path d="M30.8076 17.0642C33.423 17.0642 36.0384 11.3975 40.3973 11.3975C43.7677 11.3975 46.4999 14.1297 46.4999 17.5001C46.4999 20.8705 43.7677 23.6027 40.3973 23.6027C36.0384 23.6027 33.423 17.936 30.8076 17.936V17.0642Z" fill="white"/>
<path d="M29.9359 18.8076C29.9359 21.423 35.6026 24.0384 35.6026 28.3973C35.6026 31.7677 32.8704 34.4999 29.5 34.4999C26.1297 34.4999 23.3975 31.7677 23.3975 28.3973C23.3975 24.0384 29.0641 21.423 29.0641 18.8076H29.9359Z" fill="white"/>
<path d="M29.0642 16.1923C29.0642 13.5769 23.3975 10.9615 23.3975 6.60256C23.3975 3.23221 26.1297 0.5 29.5001 0.5C32.8704 0.5 35.6026 3.23221 35.6026 6.60256C35.6026 10.9615 29.936 13.5769 29.936 16.1923H29.0642Z" fill="white"/>
<path d="M28.1924 17.0642H30.8078V17.936H28.1924V17.0642Z" fill="white"/>
<path d="M29.0645 18.8078V16.1924H29.9363V18.8078H29.0645Z" fill="white"/>
<path d="M128.446 24.9103V13.9732H131.337V15.9028H131.465C131.693 15.262 132.073 14.7565 132.604 14.3862C133.136 14.0159 133.772 13.8308 134.513 13.8308C135.263 13.8308 135.901 14.0183 136.428 14.3933C136.955 14.7636 137.306 15.2668 137.482 15.9028H137.596C137.819 15.2762 138.222 14.7754 138.806 14.4004C139.395 14.0207 140.09 13.8308 140.893 13.8308C141.913 13.8308 142.742 14.156 143.378 14.8063C144.018 15.4519 144.339 16.3681 144.339 17.5548V24.9103H141.313V18.1529C141.313 17.5453 141.151 17.0896 140.829 16.7858C140.506 16.482 140.102 16.3301 139.618 16.3301C139.067 16.3301 138.638 16.5057 138.329 16.857C138.021 17.2035 137.866 17.6616 137.866 18.2312V24.9103H134.926V18.0888C134.926 17.5524 134.771 17.1252 134.463 16.8071C134.159 16.4891 133.758 16.3301 133.259 16.3301C132.922 16.3301 132.619 16.4155 132.348 16.5864C132.082 16.7526 131.871 16.9875 131.714 17.2913C131.558 17.5904 131.479 17.9417 131.479 18.3452V24.9103H128.446Z" fill="white"/>
<path d="M122.986 20.2534V13.9731H126.02V24.9102H123.107V22.9235H122.994C122.747 23.5644 122.336 24.0794 121.762 24.4687C121.192 24.8579 120.497 25.0526 119.675 25.0526C118.944 25.0526 118.301 24.8864 117.746 24.5541C117.19 24.2218 116.756 23.7495 116.443 23.1372C116.134 22.5248 115.977 21.7914 115.973 20.9369V13.9731H119.006V20.3958C119.011 21.0414 119.184 21.5517 119.526 21.9267C119.868 22.3017 120.326 22.4892 120.9 22.4892C121.266 22.4892 121.607 22.4061 121.925 22.24C122.243 22.0691 122.5 21.8175 122.694 21.4852C122.894 21.1529 122.991 20.7423 122.986 20.2534Z" fill="white"/>
<path d="M113.997 13.9731V16.2517H107.41V13.9731H113.997ZM108.906 11.3528H111.939V21.5493C111.939 21.8294 111.982 22.0477 112.067 22.2044C112.153 22.3563 112.271 22.4631 112.423 22.5248C112.58 22.5865 112.76 22.6174 112.964 22.6174C113.107 22.6174 113.249 22.6055 113.392 22.5818C113.534 22.5533 113.643 22.5319 113.719 22.5177L114.196 24.7749C114.044 24.8223 113.831 24.8769 113.555 24.9386C113.28 25.0051 112.945 25.0454 112.551 25.0597C111.82 25.0882 111.179 24.9909 110.629 24.7677C110.083 24.5446 109.658 24.1981 109.354 23.7282C109.05 23.2582 108.901 22.6648 108.906 21.948V11.3528Z" fill="white"/>
<path d="M98.7394 18.5873V24.9103H95.7061V13.9732H98.597V15.9028H98.7252C98.9673 15.2668 99.3731 14.7636 99.9428 14.3933C100.512 14.0183 101.203 13.8308 102.015 13.8308C102.774 13.8308 103.436 13.9969 104.001 14.3292C104.566 14.6615 105.005 15.1362 105.319 15.7533C105.632 16.3657 105.789 17.0967 105.789 17.9464V24.9103H102.755V18.4876C102.76 17.8183 102.589 17.2961 102.243 16.9211C101.896 16.5413 101.419 16.3514 100.811 16.3514C100.403 16.3514 100.042 16.4393 99.7292 16.6149C99.4206 16.7905 99.1785 17.0469 99.0029 17.3839C98.832 17.7162 98.7442 18.1173 98.7394 18.5873Z" fill="white"/>
<path d="M87.193 25.1168C86.4951 25.1168 85.8733 24.9957 85.3274 24.7536C84.7815 24.5068 84.3495 24.1436 84.0315 23.6642C83.7182 23.18 83.5615 22.5771 83.5615 21.8556C83.5615 21.248 83.6731 20.7377 83.8962 20.3247C84.1193 19.9117 84.4231 19.5794 84.8076 19.3278C85.1921 19.0762 85.6288 18.8863 86.1178 18.7582C86.6115 18.63 87.1289 18.5398 87.67 18.4876C88.3061 18.4211 88.8188 18.3594 89.2081 18.3025C89.5973 18.2407 89.8798 18.1505 90.0554 18.0319C90.231 17.9132 90.3188 17.7376 90.3188 17.505V17.4622C90.3188 17.0113 90.1764 16.6624 89.8916 16.4155C89.6115 16.1687 89.2128 16.0453 88.6954 16.0453C88.1495 16.0453 87.7151 16.1663 87.3923 16.4084C87.0695 16.6458 86.8559 16.9448 86.7515 17.3056L83.946 17.0777C84.0884 16.4131 84.3685 15.8388 84.7862 15.3546C85.204 14.8656 85.7428 14.4906 86.4026 14.2295C87.0672 13.9637 87.8362 13.8308 88.7096 13.8308C89.3172 13.8308 89.8987 13.902 90.4541 14.0444C91.0143 14.1868 91.5103 14.4075 91.9423 14.7066C92.379 15.0057 92.7232 15.3902 92.9748 15.8601C93.2264 16.3253 93.3522 16.8831 93.3522 17.5334V24.9103H90.4755V23.3936H90.3901C90.2144 23.7354 89.9794 24.0368 89.6851 24.2979C89.3908 24.5542 89.0372 24.756 88.6242 24.9031C88.2112 25.0455 87.7341 25.1168 87.193 25.1168ZM88.0617 23.0233C88.5079 23.0233 88.9019 22.9355 89.2437 22.7599C89.5854 22.5795 89.8536 22.3374 90.0483 22.0336C90.2429 21.7298 90.3402 21.3856 90.3402 21.0011V19.8405C90.2453 19.9022 90.1147 19.9592 89.9486 20.0114C89.7872 20.0588 89.6044 20.1039 89.4003 20.1467C89.1962 20.1846 88.9921 20.2202 88.7879 20.2535C88.5838 20.2819 88.3987 20.3081 88.2325 20.3318C87.8765 20.384 87.5656 20.4671 87.2998 20.581C87.0339 20.6949 86.8274 20.8492 86.6803 21.0438C86.5331 21.2337 86.4595 21.4711 86.4595 21.7559C86.4595 22.1689 86.6091 22.4845 86.9081 22.7029C87.2119 22.9165 87.5965 23.0233 88.0617 23.0233Z" fill="white"/>
<path d="M78.6153 20.2534V13.9731H81.6486V24.9102H78.7363V22.9235H78.6224C78.3755 23.5644 77.9649 24.0794 77.3905 24.4687C76.8209 24.8579 76.1255 25.0526 75.3042 25.0526C74.5732 25.0526 73.93 24.8864 73.3746 24.5541C72.8192 24.2218 72.3848 23.7495 72.0715 23.1372C71.763 22.5248 71.6063 21.7914 71.6016 20.9369V13.9731H74.6349V20.3958C74.6397 21.0414 74.8129 21.5517 75.1547 21.9267C75.4965 22.3017 75.9546 22.4892 76.529 22.4892C76.8945 22.4892 77.2363 22.4061 77.5543 22.24C77.8724 22.0691 78.1287 21.8175 78.3233 21.4852C78.5227 21.1529 78.62 20.7423 78.6153 20.2534Z" fill="white"/>
<path d="M61.4783 19.8405H64.0986L65.4159 21.5352L66.7118 23.0447L69.1542 26.1065H66.2775L64.5971 24.0416L63.7355 22.8168L61.4783 19.8405ZM69.3749 17.6189C69.3749 19.2091 69.0735 20.562 68.4706 21.6776C67.8725 22.7931 67.056 23.6452 66.0211 24.2338C64.9911 24.8177 63.8328 25.1096 62.5464 25.1096C61.2504 25.1096 60.0874 24.8153 59.0573 24.2267C58.0272 23.6381 57.2131 22.786 56.615 21.6704C56.0169 20.5549 55.7178 19.2044 55.7178 17.6189C55.7178 16.0286 56.0169 14.6758 56.615 13.5602C57.2131 12.4447 58.0272 11.595 59.0573 11.0111C60.0874 10.4225 61.2504 10.1282 62.5464 10.1282C63.8328 10.1282 64.9911 10.4225 66.0211 11.0111C67.056 11.595 67.8725 12.4447 68.4706 13.5602C69.0735 14.6758 69.3749 16.0286 69.3749 17.6189ZM66.249 17.6189C66.249 16.5888 66.0947 15.7201 65.7862 15.0128C65.4824 14.3055 65.0528 13.7691 64.4974 13.4036C63.942 13.038 63.2916 12.8553 62.5464 12.8553C61.8011 12.8553 61.1507 13.038 60.5953 13.4036C60.0399 13.7691 59.608 14.3055 59.2994 15.0128C58.9956 15.7201 58.8437 16.5888 58.8437 17.6189C58.8437 18.649 58.9956 19.5177 59.2994 20.225C59.608 20.9323 60.0399 21.4687 60.5953 21.8342C61.1507 22.1997 61.8011 22.3825 62.5464 22.3825C63.2916 22.3825 63.942 22.1997 64.4974 21.8342C65.0528 21.4687 65.4824 20.9323 65.7862 20.225C66.0947 19.5177 66.249 18.649 66.249 17.6189Z" fill="white"/>
</g>
<defs>
<clipPath id="clip0_889_1131">
<rect width="155" height="34" fill="white" transform="translate(0.5 0.5)"/>
</clipPath>
</defs>
</svg>
