<svg width="16" height="15" viewBox="0 0 16 15" fill="none" xmlns="http://www.w3.org/2000/svg">
<path d="M9.41089 2.43745C9.40901 2.33166 9.37036 2.22982 9.30159 2.14942C9.2328 2.06902 9.13818 2.01506 9.03396 1.99682C8.92975 1.97857 8.82242 1.99716 8.73042 2.04941C8.63841 2.10167 8.56746 2.18431 8.52975 2.28317C7.97989 3.73602 7.21404 4.78174 6.22961 5.4726C5.24475 6.16345 4.00104 6.52817 2.44746 6.55088C2.34167 6.55276 2.23983 6.59141 2.15943 6.66019C2.07903 6.72896 2.02508 6.82358 2.00683 6.9278C1.98858 7.03203 2.00718 7.13934 2.05943 7.23135C2.11168 7.32335 2.19432 7.3943 2.29318 7.43202C3.74604 7.98188 4.79175 8.74774 5.48261 9.7326C6.17389 10.7175 6.53818 11.9607 6.56132 13.5143C6.5632 13.6201 6.60185 13.7219 6.67063 13.8023C6.7394 13.8828 6.83402 13.9366 6.93824 13.955C7.04247 13.9732 7.14978 13.9545 7.24179 13.9024C7.3338 13.8501 7.40474 13.7675 7.44246 13.6686C7.99232 12.2157 8.75775 11.17 9.74261 10.4792C10.7275 9.78788 11.9712 9.4236 13.5243 9.40045C13.6304 9.39908 13.7327 9.3607 13.8135 9.29194C13.8943 9.22318 13.9485 9.12834 13.9668 9.02385C13.9851 8.91934 13.9663 8.81174 13.9137 8.7196C13.8611 8.62748 13.7779 8.55664 13.6786 8.51931C12.2257 7.96945 11.18 7.20402 10.4892 6.21917C9.79832 5.23431 9.43361 3.9906 9.41089 2.43745Z" fill="url(#paint0_linear_792_2705)"/>
<path d="M9.41089 2.43745C9.40901 2.33166 9.37036 2.22982 9.30159 2.14942C9.2328 2.06902 9.13818 2.01506 9.03396 1.99682C8.92975 1.97857 8.82242 1.99716 8.73042 2.04941C8.63841 2.10167 8.56746 2.18431 8.52975 2.28317C7.97989 3.73602 7.21404 4.78174 6.22961 5.4726C5.24475 6.16345 4.00104 6.52817 2.44746 6.55088C2.34167 6.55276 2.23983 6.59141 2.15943 6.66019C2.07903 6.72896 2.02508 6.82358 2.00683 6.9278C1.98858 7.03203 2.00718 7.13934 2.05943 7.23135C2.11168 7.32335 2.19432 7.3943 2.29318 7.43203C3.74604 7.98188 4.79175 8.74774 5.48261 9.7326C6.17389 10.7175 6.53818 11.9607 6.56132 13.5143C6.5632 13.6201 6.60185 13.7219 6.67063 13.8023C6.7394 13.8828 6.83402 13.9366 6.93824 13.955C7.04247 13.9732 7.14978 13.9545 7.24179 13.9024C7.3338 13.8501 7.40474 13.7675 7.44246 13.6686C7.99232 12.2157 8.75775 11.17 9.74261 10.4792C10.7275 9.78788 11.9712 9.4236 13.5243 9.40045C13.6304 9.39908 13.7327 9.3607 13.8135 9.29194C13.8943 9.22317 13.9485 9.12834 13.9668 9.02385C13.9851 8.91934 13.9663 8.81174 13.9137 8.7196C13.8611 8.62748 13.7779 8.55664 13.6786 8.51931C12.2257 7.96945 11.18 7.20402 10.4892 6.21917C9.79832 5.23431 9.43361 3.9906 9.41089 2.43745Z" stroke="url(#paint1_linear_792_2705)" stroke-width="0.857143"/>
<defs>
<linearGradient id="paint0_linear_792_2705" x1="2" y1="7.97588" x2="13.9736" y2="7.97588" gradientUnits="userSpaceOnUse">
<stop stop-color="#2558EB"/>
<stop offset="1" stop-color="#25C4EB"/>
</linearGradient>
<linearGradient id="paint1_linear_792_2705" x1="2" y1="7.97588" x2="13.9736" y2="7.97588" gradientUnits="userSpaceOnUse">
<stop stop-color="#2558EB"/>
<stop offset="1" stop-color="#25C4EB"/>
</linearGradient>
</defs>
</svg>
