<svg width="726" height="726" viewBox="0 0 726 726" fill="none" xmlns="http://www.w3.org/2000/svg">
<circle cx="362.293" cy="367.322" r="350.576" fill="#000103"/>
<circle cx="362.293" cy="367.322" r="350.076" stroke="white" stroke-opacity="0.3"/>
<rect y="383.508" width="33.4114" height="33.4114" rx="16.7057" fill="#00030A"/>
<rect x="0.45" y="383.958" width="32.5114" height="32.5114" rx="16.2557" stroke="white" stroke-opacity="0.3" stroke-width="0.9"/>
<path d="M10.1768 400.214V406.743H16.706H23.2353V400.214V393.685H16.706H10.1768V400.214Z" fill="#007ACC"/>
<path d="M13.0647 400.257L13.0605 400.792H13.9104L14.7602 400.792V403.207V405.622H15.3613H15.9624V403.207V400.792H16.8123H17.6621V400.268C17.6621 399.977 17.6559 399.735 17.6476 399.729C17.6414 399.72 16.6071 399.716 15.353 399.718L13.0709 399.724L13.0647 400.257Z" fill="white"/>
<path d="M20.7133 399.709C21.045 399.792 21.2978 399.939 21.53 400.18C21.6502 400.308 21.8285 400.542 21.843 400.598C21.8471 400.615 21.2792 400.996 20.9351 401.21C20.9227 401.218 20.8729 401.164 20.8169 401.081C20.6491 400.837 20.4729 400.731 20.2034 400.712C19.8075 400.685 19.5525 400.893 19.5546 401.239C19.5546 401.34 19.5691 401.401 19.6106 401.484C19.6976 401.664 19.8593 401.772 20.3672 401.991C21.302 402.393 21.702 402.659 21.9508 403.036C22.2285 403.457 22.2907 404.128 22.1021 404.628C21.8948 405.171 21.3807 405.54 20.6573 405.662C20.4335 405.702 19.9028 405.695 19.6624 405.652C19.138 405.559 18.6405 405.3 18.3337 404.96C18.2135 404.827 17.9793 404.481 17.9938 404.456C18 404.448 18.0539 404.414 18.114 404.379C18.1721 404.346 18.3918 404.22 18.5991 404.099L18.9742 403.882L19.053 403.998C19.1629 404.166 19.4033 404.396 19.5484 404.472C19.965 404.692 20.5371 404.661 20.819 404.408C20.9392 404.298 20.989 404.184 20.989 404.016C20.989 403.865 20.9703 403.799 20.8916 403.685C20.79 403.54 20.5827 403.417 19.994 403.162C19.3204 402.872 19.0302 402.692 18.7649 402.406C18.6115 402.24 18.4664 401.975 18.4063 401.753C18.3565 401.568 18.3441 401.106 18.3835 400.92C18.5224 400.269 19.0136 399.815 19.7225 399.68C19.9526 399.637 20.4874 399.653 20.7133 399.709Z" fill="white"/>
<rect x="44.3164" y="523.844" width="33.4114" height="33.4114" rx="16.7057" fill="#00030A"/>
<rect x="44.7664" y="524.294" width="32.5114" height="32.5114" rx="16.2557" stroke="white" stroke-opacity="0.3" stroke-width="0.9"/>
<path d="M62.2091 534.021H57.1635C56.6892 534.021 56.2734 534.436 56.2734 534.911V546.189C56.2734 546.663 56.6887 547.079 57.164 547.079H64.8803C65.355 547.079 65.7708 546.664 65.7708 546.189V537.582L63.6935 536.098L62.2091 534.021Z" fill="#4285F4"/>
<path d="M58.6475 543.517H63.3959V542.924H58.648L58.6475 543.517ZM58.6475 544.704H62.2087V544.111H58.6475V544.704ZM58.6475 540.549V541.143H63.3959V540.549H58.6475ZM58.6475 542.33H63.3959V541.737H58.648L58.6475 542.33Z" fill="#F1F1F1"/>
<path d="M62.209 534.021V536.692C62.209 537.166 62.6242 537.582 63.099 537.582H65.7702L62.209 534.021Z" fill="#A1C2FA"/>
<rect x="86.9287" y="114.2" width="33.4114" height="33.4114" rx="16.7057" fill="#00030A"/>
<rect x="87.3787" y="114.65" width="32.5114" height="32.5114" rx="16.2557" stroke="white" stroke-opacity="0.3" stroke-width="0.9"/>
<path d="M104.822 124.376H99.7777C99.2881 124.376 98.8877 124.779 98.8877 125.269V136.545C98.8877 137.034 99.2881 137.435 99.7777 137.435H107.491C107.981 137.435 108.381 137.034 108.381 136.545V127.939L106.303 126.455L104.822 124.376Z" fill="#0F9D58"/>
<path d="M101.262 130.756V135.061H106.01V130.756H101.262ZM103.337 134.466H101.854V133.725H103.337V134.466ZM103.337 133.278H101.854V132.536H103.337V133.278ZM103.337 132.092H101.854V131.351H103.337V132.092ZM105.416 134.466H103.932V133.725H105.416V134.466ZM105.416 133.278H103.932V132.536H105.416V133.278ZM105.416 132.092H103.932V131.351H105.416V132.092Z" fill="#F1F1F1"/>
<path d="M105.082 127.678L108.382 130.978V127.938L105.082 127.678Z" fill="url(#paint0_linear_886_803)"/>
<path d="M104.822 124.377V127.047C104.822 127.539 105.22 127.937 105.712 127.937H108.382L104.822 124.377Z" fill="#87CEAC"/>
<path d="M99.7777 124.376C99.2881 124.376 98.8877 124.779 98.8877 125.269V125.343C98.8877 124.853 99.2881 124.452 99.7777 124.452H104.822V124.376H99.7777V124.376Z" fill="white" fill-opacity="0.2"/>
<path d="M107.492 137.358H99.7777C99.2881 137.358 98.8877 136.957 98.8877 136.468V136.542C98.8877 137.031 99.2881 137.432 99.7777 137.432H107.491C107.981 137.432 108.381 137.031 108.381 136.542V136.468C108.381 136.957 107.981 137.358 107.492 137.358Z" fill="#263238" fill-opacity="0.2"/>
<path d="M105.711 127.938C105.219 127.938 104.821 127.541 104.821 127.048V127.122C104.821 127.614 105.219 128.012 105.711 128.012H108.381V127.938H105.711Z" fill="#263238" fill-opacity="0.1"/>
<path d="M104.822 124.376H99.7777C99.2881 124.376 98.8877 124.779 98.8877 125.269V136.545C98.8877 137.034 99.2881 137.435 99.7777 137.435H107.491C107.981 137.435 108.381 137.034 108.381 136.545V127.939L104.822 124.376Z" fill="url(#paint1_radial_886_803)"/>
<rect x="13.0674" y="239.764" width="33.4114" height="33.4114" rx="16.7057" fill="#00030A"/>
<rect x="13.5174" y="240.214" width="32.5114" height="32.5114" rx="16.2557" stroke="white" stroke-opacity="0.3" stroke-width="0.9"/>
<path d="M37.3309 256.379C37.5288 256.345 37.5974 256.309 37.5323 256.274C37.4672 256.239 37.2698 256.205 36.9533 256.174C36.4841 256.128 35.7674 256.091 34.9067 256.069C34.046 256.047 33.0857 256.042 32.1645 256.053C31.749 256.026 31.2383 256.005 30.6666 255.991C30.0948 255.976 29.4752 255.969 28.8492 255.969C27.9073 255.969 26.9891 255.986 26.2269 256.017C25.4646 256.049 24.8977 256.093 24.6078 256.144C23.9942 256.151 23.4144 256.165 22.9074 256.186C22.4004 256.207 21.9778 256.234 21.6679 256.265C21.1951 256.311 20.9934 256.364 21.0917 256.417C21.19 256.47 21.5833 256.52 22.215 256.56C22.0171 256.594 21.9485 256.629 22.0136 256.665C22.0787 256.7 22.2761 256.734 22.5926 256.765C23.0619 256.811 23.7785 256.848 24.6392 256.869C25.4999 256.891 26.4602 256.897 27.3814 256.885C27.797 256.912 28.3078 256.933 28.8796 256.948C29.4515 256.962 30.0711 256.969 30.6972 256.969C31.6395 256.969 32.5582 256.953 33.3207 256.921C34.0833 256.89 34.6503 256.846 34.9398 256.795C35.5534 256.788 36.1331 256.773 36.64 256.752C37.147 256.731 37.5695 256.705 37.8793 256.674C38.3516 256.628 38.5529 256.574 38.4544 256.521C38.3558 256.468 37.9625 256.418 37.3309 256.379ZM30.6985 256.904C29.9249 256.904 29.1754 256.889 28.5814 256.861C28.6083 256.86 28.6555 256.858 28.6859 256.857L32.1993 256.742C32.2877 256.739 32.361 256.735 32.4118 256.73C32.4626 256.725 32.489 256.72 32.4883 256.714V256.433L33.9733 256.482C33.9811 256.482 33.9878 256.482 33.9929 256.483C33.998 256.483 34.0012 256.484 34.0024 256.484V256.716C34.0013 256.766 33.6529 256.814 33.0336 256.849C32.4142 256.884 31.5743 256.904 30.6981 256.904L30.6985 256.904ZM23.5932 256.732C23.2057 256.694 23.0661 256.65 23.1988 256.606C23.2252 256.607 23.2702 256.609 23.3033 256.61L26.8167 256.725C26.9043 256.728 27.0039 256.729 27.1052 256.729C27.2066 256.729 27.3062 256.728 27.3938 256.725L31.6836 256.585V256.682C31.6841 256.682 31.6825 256.683 31.6788 256.683C31.6751 256.684 31.6695 256.684 31.6624 256.684L28.1107 256.801C27.3509 256.825 26.4485 256.832 25.6016 256.819C24.7546 256.806 24.0323 256.775 23.5932 256.732ZM22.6689 256.297C23.0548 256.259 23.6644 256.23 24.3908 256.215C24.3908 256.217 24.389 256.22 24.389 256.222V256.452C24.3884 256.458 24.4149 256.463 24.4656 256.468C24.5163 256.473 24.5894 256.477 24.6775 256.48L28.967 256.621L27.482 256.669C27.4746 256.669 27.4662 256.67 27.4574 256.67C27.4486 256.67 27.4398 256.67 27.4317 256.669L23.879 256.553C23.1206 256.528 22.5673 256.487 22.3404 256.439C22.1136 256.391 22.2317 256.34 22.6689 256.297ZM34.8706 256.458L30.5807 256.318L32.0661 256.269C32.0734 256.269 32.0818 256.269 32.0905 256.269C32.0992 256.269 32.1079 256.269 32.116 256.269L35.6682 256.385C36.2124 256.403 36.6558 256.429 36.9464 256.461C37.237 256.492 37.3629 256.528 37.3093 256.563C37.2557 256.599 37.0249 256.633 36.6437 256.661C36.2626 256.69 35.747 256.711 35.1573 256.723V256.486C35.1581 256.481 35.132 256.475 35.0816 256.47C35.0312 256.465 34.9584 256.461 34.8706 256.458ZM36.3485 256.332C36.3224 256.331 36.277 256.33 36.2444 256.329L32.7305 256.214C32.6429 256.211 32.5434 256.209 32.442 256.209C32.3406 256.209 32.241 256.211 32.1535 256.214L27.864 256.354V256.257C27.8635 256.256 27.8652 256.256 27.8689 256.255C27.8726 256.255 27.8782 256.254 27.8852 256.254L31.4366 256.138C31.9807 256.12 32.6031 256.112 33.2307 256.113C33.8584 256.115 34.4654 256.126 34.9808 256.147C35.4961 256.167 35.8985 256.195 36.1408 256.228C36.3831 256.261 36.4548 256.297 36.3485 256.332ZM27.0563 256.505L25.5709 256.457C25.5632 256.457 25.5565 256.456 25.5515 256.456C25.5465 256.455 25.5433 256.455 25.5422 256.454V256.222C25.5427 256.186 25.7222 256.151 26.0595 256.121C26.3969 256.091 26.8782 256.067 27.4471 256.052C28.016 256.037 28.6491 256.032 29.2722 256.036C29.8952 256.041 30.4826 256.055 30.9654 256.078C30.9303 256.079 30.8956 256.08 30.8613 256.081L27.3474 256.196C27.2593 256.199 27.1862 256.203 27.1355 256.208C27.0848 256.213 27.0584 256.219 27.0589 256.225L27.0563 256.505ZM27.8632 256.407L29.7734 256.344L31.6845 256.407V256.532L29.7738 256.594L27.8632 256.532V256.407Z" fill="white"/>
<rect x="347.146" width="33.4114" height="33.4114" rx="16.7057" fill="#00030A"/>
<rect x="347.596" y="0.45" width="32.5114" height="32.5114" rx="16.2557" stroke="white" stroke-opacity="0.3" stroke-width="0.9"/>
<path fill-rule="evenodd" clip-rule="evenodd" d="M358.773 19.124H363.852V23.9605L358.773 19.124Z" fill="#0055FF"/>
<path d="M363.852 14.2876H358.773V19.1241H368.93L363.852 14.2876Z" fill="#00AAFF"/>
<path d="M358.773 9.45117L363.852 14.2877H368.93V9.45117H358.773Z" fill="#88DDFF"/>
<rect x="204.538" y="28.9761" width="33.4114" height="33.4114" rx="16.7057" fill="#00030A"/>
<rect x="204.988" y="29.4261" width="32.5114" height="32.5114" rx="16.2557" stroke="white" stroke-opacity="0.3" stroke-width="0.9"/>
<path d="M215.954 48.5533L219.379 46.6315L219.437 46.464L219.379 46.3714H219.212L218.639 46.3361L216.682 46.2833L214.985 46.2127L213.34 46.1246L212.926 46.0364L212.538 45.5251L212.578 45.2694L212.926 45.0358L213.424 45.0799L214.526 45.1548L216.179 45.2694L217.378 45.3399L219.154 45.5251H219.437L219.476 45.4105L219.379 45.3399L219.304 45.2694L217.594 44.1101L215.743 42.8847L214.773 42.1794L214.248 41.8224L213.984 41.4874L213.869 40.7557L214.345 40.2311L214.985 40.2752L215.148 40.3193L215.796 40.8174L217.18 41.8885L218.987 43.2197L219.251 43.4401L219.357 43.3652L219.37 43.3123L219.251 43.1139L218.268 41.3375L217.219 39.5303L216.752 38.7809L216.629 38.3313C216.585 38.1462 216.554 37.9919 216.554 37.8023L217.096 37.0662L217.396 36.9692L218.119 37.0662L218.423 37.3307L218.872 38.3577L219.6 39.9755L220.728 42.175L221.059 42.8274L221.235 43.4313L221.301 43.6164H221.416V43.5106L221.508 42.272L221.68 40.7513L221.848 38.7941L221.905 38.2431L222.178 37.5819L222.72 37.2249L223.144 37.4277L223.492 37.9258L223.443 38.2475L223.236 39.592L222.831 41.699L222.566 43.1095H222.72L222.897 42.9332L223.611 41.9855L224.81 40.4868L225.339 39.8917L225.956 39.2349L226.353 38.922H227.102L227.653 39.7418L227.406 40.5882L226.635 41.5667L225.996 42.3954L225.079 43.6297L224.506 44.617L224.559 44.6964L224.695 44.6832L226.767 44.2424L227.887 44.0396L229.222 43.8104L229.826 44.0925L229.892 44.379L229.654 44.9653L228.226 45.3179L226.551 45.6529L224.056 46.2436L224.025 46.2656L224.06 46.3097L225.185 46.4155L225.665 46.4419H226.842L229.033 46.605L229.606 46.9841L229.95 47.447L229.892 47.7996L229.011 48.2492L227.82 47.9671L225.043 47.3059L224.091 47.0679H223.959V47.1472L224.753 47.923L226.207 49.2366L228.028 50.9292L228.12 51.348L227.887 51.6786L227.64 51.6433L226.04 50.44L225.423 49.8978L224.025 48.7208H223.933V48.8443L224.254 49.3159L225.956 51.8725L226.044 52.6572L225.921 52.9128L225.48 53.0671L224.995 52.9789L223.999 51.5816L222.972 50.008L222.143 48.5974L222.042 48.6547L221.552 53.9222L221.323 54.1911L220.794 54.3939L220.353 54.0589L220.12 53.5167L220.353 52.4456L220.636 51.0483L220.865 49.9374L221.072 48.5578L221.195 48.0993L221.186 48.0685L221.085 48.0817L220.045 49.5099L218.462 51.6477L217.211 52.9878L216.911 53.1068L216.391 52.8379L216.439 52.3574L216.73 51.9298L218.462 49.7259L219.507 48.3594L220.181 47.5704L220.177 47.4558H220.137L215.535 50.4444L214.716 50.5502L214.363 50.2196L214.407 49.6774L214.575 49.5011L215.959 48.5489L215.954 48.5533Z" fill="#D97757"/>
<rect x="606.797" y="117.041" width="33.4114" height="33.4114" rx="16.7057" fill="#00030A"/>
<rect x="607.247" y="117.491" width="32.5114" height="32.5114" rx="16.2557" stroke="white" stroke-opacity="0.3" stroke-width="0.9"/>
<path d="M623.503 129.394C621.568 129.394 620.359 130.361 619.875 132.295C620.601 131.328 621.447 130.965 622.415 131.207C622.966 131.345 623.361 131.746 623.798 132.189C624.509 132.911 625.332 133.746 627.13 133.746C629.065 133.746 630.274 132.779 630.758 130.845C630.032 131.812 629.186 132.175 628.218 131.933C627.667 131.795 627.272 131.394 626.835 130.951C626.124 130.229 625.301 129.394 623.503 129.394ZM619.875 133.746C617.941 133.746 616.732 134.714 616.248 136.648C616.974 135.681 617.82 135.318 618.787 135.56C619.339 135.698 619.734 136.098 620.17 136.542C620.882 137.264 621.705 138.099 623.503 138.099C625.437 138.099 626.647 137.132 627.13 135.197C626.405 136.165 625.558 136.527 624.591 136.286C624.039 136.148 623.645 135.747 623.208 135.304C622.497 134.582 621.674 133.746 619.875 133.746Z" fill="url(#paint2_linear_886_803)"/>
<rect x="489.756" y="30.1128" width="33.4114" height="33.4114" rx="16.7057" fill="#00030A"/>
<rect x="490.206" y="30.5628" width="32.5114" height="32.5114" rx="16.2557" stroke="white" stroke-opacity="0.3" stroke-width="0.9"/>
<g clip-path="url(#clip0_886_803)">
<path d="M506.461 46.8185C506.461 46.2413 506.69 45.6877 507.098 45.2796C507.507 44.8714 508.06 44.6421 508.637 44.6421C509.215 44.6421 509.768 44.8714 510.176 45.2796C510.584 45.6877 510.814 46.2413 510.814 46.8185C510.814 47.3957 510.584 47.9493 510.176 48.3575C509.768 48.7656 509.215 48.9949 508.637 48.9949C508.06 48.9949 507.507 48.7656 507.098 48.3575C506.69 47.9493 506.461 47.3957 506.461 46.8185V46.8185Z" fill="#1ABCFE"/>
<path d="M502.108 51.1711C502.108 50.5938 502.338 50.0402 502.746 49.6321C503.154 49.2239 503.708 48.9946 504.285 48.9946H506.461V51.1711C506.461 51.7483 506.232 52.3019 505.824 52.71C505.416 53.1182 504.862 53.3475 504.285 53.3475C503.708 53.3475 503.154 53.1182 502.746 52.71C502.338 52.3019 502.108 51.7483 502.108 51.1711V51.1711Z" fill="#0ACF83"/>
<path d="M506.461 40.2891V44.6419H508.637C509.215 44.6419 509.768 44.4126 510.176 44.0045C510.584 43.5963 510.814 43.0427 510.814 42.4655C510.814 41.8883 510.584 41.3347 510.176 40.9265C509.768 40.5184 509.215 40.2891 508.637 40.2891H506.461Z" fill="#FF7262"/>
<path d="M502.108 42.4655C502.108 43.0427 502.338 43.5963 502.746 44.0045C503.154 44.4126 503.708 44.6419 504.285 44.6419H506.461V40.2891H504.285C503.708 40.2891 503.154 40.5184 502.746 40.9265C502.338 41.3347 502.108 41.8883 502.108 42.4655V42.4655Z" fill="#F24E1E"/>
<path d="M502.108 46.8185C502.108 47.3957 502.338 47.9493 502.746 48.3575C503.154 48.7656 503.708 48.9949 504.285 48.9949H506.461V44.6421H504.285C503.708 44.6421 503.154 44.8714 502.746 45.2796C502.338 45.6877 502.108 46.2413 502.108 46.8185V46.8185Z" fill="#A259FF"/>
</g>
<rect x="141.472" y="632.363" width="33.4114" height="33.4114" rx="16.7057" fill="#00030A"/>
<rect x="141.922" y="632.813" width="32.5114" height="32.5114" rx="16.2557" stroke="white" stroke-opacity="0.3" stroke-width="0.9"/>
<rect x="151.648" y="642.54" width="13.0586" height="13.0586" rx="6.52929" fill="#001E36"/>
<path fill-rule="evenodd" clip-rule="evenodd" d="M154.249 651.847V646.197C154.249 646.158 154.265 646.136 154.303 646.136C154.396 646.136 154.483 646.136 154.608 646.131C154.675 646.128 154.744 646.127 154.815 646.125C154.882 646.124 154.95 646.123 155.022 646.12C155.098 646.117 155.177 646.116 155.258 646.114C155.335 646.113 155.414 646.112 155.495 646.109C155.664 646.104 155.827 646.104 155.99 646.104C156.436 646.104 156.806 646.158 157.111 646.274C157.383 646.367 157.633 646.521 157.84 646.724C158.014 646.9 158.15 647.114 158.237 647.35C158.319 647.581 158.362 647.817 158.362 648.064C158.362 648.536 158.254 648.926 158.036 649.233C157.818 649.541 157.514 649.771 157.16 649.903C156.79 650.041 156.382 650.09 155.936 650.09C155.805 650.09 155.718 650.09 155.664 650.084C155.609 650.079 155.533 650.079 155.43 650.079L155.43 651.842C155.435 651.88 155.408 651.913 155.37 651.918H154.314C154.271 651.918 154.249 651.897 154.249 651.847ZM155.435 647.196V649.041L155.452 649.042C155.521 649.047 155.587 649.052 155.647 649.052H155.936C156.148 649.052 156.36 649.019 156.561 648.953C156.736 648.904 156.888 648.8 157.008 648.662C157.122 648.525 157.176 648.338 157.176 648.097C157.182 647.927 157.138 647.756 157.051 647.608C156.959 647.465 156.828 647.355 156.67 647.295C156.469 647.213 156.251 647.18 156.028 647.185C155.887 647.185 155.762 647.185 155.658 647.191C155.549 647.185 155.473 647.191 155.435 647.196Z" fill="#31A8FF"/>
<path d="M161.235 648.52C161.42 648.558 161.594 648.618 161.758 648.706C161.779 648.717 161.807 648.717 161.856 648.706C161.872 648.695 161.883 648.673 161.883 648.651V647.756C161.883 647.734 161.877 647.712 161.872 647.69C161.861 647.668 161.839 647.646 161.818 647.641C161.671 647.581 161.513 647.537 161.35 647.515C161.127 647.482 160.898 647.465 160.675 647.465C160.289 647.465 159.968 647.526 159.712 647.657C159.478 647.767 159.277 647.943 159.141 648.163C159.021 648.366 158.956 648.591 158.956 648.827C158.95 649.019 158.994 649.211 159.081 649.387C159.184 649.574 159.326 649.733 159.494 649.854C159.734 650.019 159.989 650.15 160.267 650.249C160.533 650.354 160.713 650.436 160.8 650.507C160.887 650.579 160.931 650.65 160.931 650.727C160.931 650.826 160.871 650.919 160.784 650.958C160.686 651.007 160.539 651.034 160.332 651.034C160.114 651.034 159.897 651.007 159.69 650.952C159.451 650.897 159.228 650.809 159.015 650.683C158.999 650.672 158.983 650.667 158.966 650.678C158.95 650.688 158.945 650.71 158.945 650.727V651.682C158.939 651.726 158.966 651.765 159.004 651.787C159.179 651.869 159.369 651.929 159.559 651.962C159.804 652.012 160.049 652.034 160.299 652.034C160.691 652.034 161.018 651.973 161.284 651.858C161.529 651.759 161.741 651.589 161.894 651.369C162.035 651.155 162.111 650.897 162.106 650.639C162.111 650.441 162.068 650.249 161.981 650.073C161.877 649.887 161.73 649.733 161.551 649.618C161.29 649.453 161.007 649.316 160.713 649.217C160.582 649.162 160.452 649.102 160.327 649.036C160.256 648.997 160.191 648.948 160.142 648.887C160.109 648.844 160.087 648.794 160.087 648.745C160.087 648.695 160.104 648.64 160.131 648.596C160.169 648.542 160.229 648.503 160.299 648.487C160.403 648.459 160.517 648.443 160.626 648.448C160.833 648.448 161.034 648.476 161.235 648.52Z" fill="#31A8FF"/>
<rect x="274.422" y="692.02" width="33.4114" height="33.4114" rx="16.7057" fill="#00030A"/>
<rect x="274.872" y="692.47" width="32.5114" height="32.5114" rx="16.2557" stroke="white" stroke-opacity="0.3" stroke-width="0.9"/>
<g clip-path="url(#clip1_886_803)">
<path d="M291.128 700.02C286.32 700.02 282.422 704.016 282.422 708.946C282.422 712.89 284.916 716.236 288.375 717.416C288.811 717.499 288.97 717.222 288.97 716.987C288.97 716.774 288.962 716.071 288.958 715.325C286.536 715.865 286.025 714.272 286.025 714.272C285.629 713.24 285.059 712.966 285.059 712.966C284.269 712.412 285.118 712.423 285.118 712.423C285.993 712.486 286.453 713.343 286.453 713.343C287.229 714.707 288.489 714.313 288.986 714.085C289.064 713.508 289.29 713.114 289.539 712.891C287.605 712.666 285.573 711.9 285.573 708.48C285.573 707.505 285.913 706.709 286.47 706.084C286.379 705.859 286.081 704.951 286.554 703.722C286.554 703.722 287.285 703.482 288.949 704.637C289.643 704.439 290.388 704.34 291.128 704.336C291.868 704.34 292.613 704.439 293.309 704.637C294.97 703.482 295.7 703.722 295.7 703.722C296.174 704.951 295.876 705.859 295.786 706.084C296.344 706.709 296.682 707.505 296.682 708.48C296.682 711.908 294.645 712.663 292.706 712.884C293.019 713.161 293.297 713.704 293.297 714.537C293.297 715.731 293.287 716.693 293.287 716.987C293.287 717.224 293.444 717.503 293.885 717.415C297.342 716.233 299.833 712.889 299.833 708.946C299.833 704.016 295.936 700.02 291.128 700.02" fill="white"/>
<path d="M285.744 712.775C285.725 712.819 285.657 712.832 285.596 712.802C285.532 712.773 285.497 712.713 285.518 712.669C285.536 712.624 285.604 712.611 285.667 712.642C285.73 712.67 285.766 712.731 285.744 712.775Z" fill="white"/>
<path d="M286.096 713.174C286.055 713.213 285.974 713.195 285.919 713.133C285.862 713.072 285.851 712.989 285.894 712.95C285.936 712.911 286.015 712.929 286.072 712.99C286.129 713.053 286.14 713.135 286.096 713.174Z" fill="white"/>
<path d="M286.439 713.683C286.386 713.721 286.299 713.685 286.245 713.607C286.192 713.528 286.192 713.434 286.246 713.396C286.3 713.359 286.386 713.392 286.44 713.47C286.493 713.55 286.493 713.645 286.439 713.683Z" fill="white"/>
<path d="M286.908 714.175C286.861 714.228 286.759 714.214 286.685 714.141C286.609 714.07 286.588 713.969 286.636 713.915C286.684 713.862 286.786 713.877 286.861 713.949C286.936 714.02 286.959 714.122 286.908 714.175Z" fill="white"/>
<path d="M287.556 714.46C287.535 714.53 287.437 714.561 287.339 714.532C287.241 714.501 287.176 714.42 287.196 714.35C287.216 714.281 287.315 714.248 287.414 714.279C287.512 714.31 287.576 714.39 287.556 714.46Z" fill="white"/>
<path d="M288.267 714.513C288.27 714.586 288.186 714.647 288.083 714.648C287.979 714.65 287.895 714.591 287.894 714.52C287.894 714.446 287.975 714.386 288.079 714.384C288.182 714.382 288.267 714.441 288.267 714.513Z" fill="white"/>
<path d="M288.929 714.399C288.941 714.47 288.869 714.543 288.767 714.562C288.666 714.581 288.573 714.537 288.56 714.467C288.547 714.394 288.62 714.321 288.721 714.302C288.824 714.284 288.916 714.327 288.929 714.399Z" fill="white"/>
</g>
<rect x="419.871" y="692.021" width="33.4114" height="33.4114" rx="16.7057" fill="#00030A"/>
<rect x="420.321" y="692.471" width="32.5114" height="32.5114" rx="16.2557" stroke="white" stroke-opacity="0.3" stroke-width="0.9"/>
<path d="M436.15 702.2C436.121 702.203 436.032 702.212 435.952 702.218C434.097 702.385 432.36 703.386 431.259 704.924C430.647 705.779 430.255 706.749 430.107 707.776C430.054 708.135 430.048 708.241 430.048 708.727C430.048 709.214 430.054 709.32 430.107 709.678C430.461 712.13 432.206 714.19 434.573 714.953C434.997 715.09 435.444 715.183 435.952 715.239C436.15 715.261 437.005 715.261 437.203 715.239C438.08 715.142 438.822 714.925 439.555 714.551C439.668 714.494 439.689 714.478 439.674 714.466C439.664 714.458 439.185 713.816 438.611 713.04L437.566 711.63L436.258 709.694C435.538 708.629 434.946 707.759 434.941 707.759C434.936 707.757 434.93 708.618 434.928 709.668C434.924 711.507 434.923 711.581 434.9 711.625C434.867 711.687 434.841 711.713 434.787 711.741C434.747 711.761 434.711 711.765 434.518 711.765H434.297L434.239 711.728C434.2 711.704 434.172 711.672 434.153 711.635L434.126 711.577L434.129 709.018L434.133 706.458L434.172 706.408C434.193 706.381 434.236 706.347 434.267 706.33C434.319 706.305 434.339 706.302 434.56 706.302C434.821 706.302 434.864 706.313 434.932 706.387C434.951 706.407 435.659 707.474 436.507 708.759C437.355 710.044 438.514 711.799 439.083 712.661L440.117 714.227L440.169 714.193C440.633 713.891 441.123 713.462 441.511 713.016C442.337 712.067 442.869 710.911 443.048 709.678C443.1 709.32 443.106 709.214 443.106 708.727C443.106 708.241 443.1 708.135 443.048 707.776C442.693 705.325 440.948 703.265 438.581 702.502C438.164 702.366 437.72 702.273 437.222 702.217C437.099 702.204 436.255 702.19 436.15 702.2ZM438.822 706.149C438.884 706.18 438.934 706.239 438.951 706.3C438.962 706.333 438.964 707.043 438.962 708.642L438.958 710.937L438.553 710.316L438.147 709.696V708.028C438.147 706.949 438.152 706.343 438.16 706.314C438.18 706.242 438.225 706.186 438.286 706.153C438.339 706.126 438.358 706.124 438.558 706.124C438.747 706.124 438.78 706.126 438.822 706.149Z" fill="white"/>
<rect x="552.253" y="631.227" width="33.4114" height="33.4114" rx="16.7057" fill="#00030A"/>
<rect x="552.703" y="631.677" width="32.5114" height="32.5114" rx="16.2557" stroke="white" stroke-opacity="0.3" stroke-width="0.9"/>
<path d="M569.816 647.864L571.089 649.319L572.801 650.413L573.1 647.874L572.801 645.39L571.057 646.351L569.816 647.864Z" fill="#00832D"/>
<path d="M562.43 650.177V652.341C562.43 652.836 562.83 653.237 563.325 653.237H565.489L565.937 651.601L565.489 650.177L564.004 649.729L562.43 650.177Z" fill="#0066DA"/>
<path d="M565.489 642.491L562.43 645.551L564.004 645.998L565.489 645.551L565.929 644.146L565.489 642.491Z" fill="#E94235"/>
<path d="M565.489 645.551H562.43V650.177H565.489V645.551Z" fill="#2684FC"/>
<path d="M574.756 643.786L572.802 645.39V650.413L574.765 652.022C575.059 652.252 575.488 652.042 575.488 651.669V644.133C575.488 643.754 575.049 643.547 574.756 643.786ZM569.817 647.864V650.177H565.489V653.236H571.907C572.401 653.236 572.802 652.836 572.802 652.341V650.413L569.817 647.864Z" fill="#00AC47"/>
<path d="M571.907 642.491H565.489V645.551H569.817V647.864L572.802 645.39V643.387C572.802 642.892 572.401 642.491 571.907 642.491Z" fill="#FFBA00"/>
<rect x="649.408" y="524.98" width="33.4114" height="33.4114" rx="16.7057" fill="#00030A"/>
<rect x="649.858" y="525.43" width="32.5114" height="32.5114" rx="16.2557" stroke="white" stroke-opacity="0.3" stroke-width="0.9"/>
<path d="M672.374 540.57C672.08 540.366 671.406 540.29 670.879 540.392C670.818 539.882 670.536 539.435 670.046 539.04L669.764 538.836L669.568 539.129C669.323 539.512 669.201 540.047 669.237 540.557C669.25 540.736 669.311 541.055 669.495 541.335C669.323 541.437 668.968 541.565 668.502 541.565H659.644L659.619 541.667C659.534 542.177 659.534 543.771 660.538 544.995C661.298 545.926 662.425 546.398 663.908 546.398C667.118 546.398 669.495 544.855 670.61 542.062C671.051 542.075 671.994 542.062 672.472 541.106C672.484 541.08 672.509 541.029 672.595 540.838L672.644 540.736L672.374 540.57ZM666.726 536.974H665.378V538.249H666.726V536.974ZM666.726 538.504H665.378V539.78H666.726V538.504ZM665.133 538.504H663.785V539.78H665.133V538.504ZM663.54 538.504H662.192V539.78H663.54V538.504ZM661.947 540.035H660.6V541.31H661.947V540.035ZM663.54 540.035H662.192V541.31H663.54V540.035ZM665.133 540.035H663.785V541.31H665.133V540.035ZM666.726 540.035H665.378V541.31H666.726V540.035ZM668.318 540.035H666.971V541.31H668.318V540.035Z" fill="#2396ED"/>
<rect x="692.589" y="385.781" width="33.4114" height="33.4114" rx="16.7057" fill="#00030A"/>
<rect x="693.039" y="386.231" width="32.5114" height="32.5114" rx="16.2557" stroke="white" stroke-opacity="0.3" stroke-width="0.9"/>
<path d="M715.771 403.316C716.228 399.738 713.701 396.468 710.131 396.011C706.56 395.554 703.276 398.08 702.819 401.651C702.362 405.222 704.888 408.499 708.459 408.963C712.037 409.42 715.307 406.893 715.771 403.316Z" fill="#FF6C37"/>
<path d="M711.652 400.15L708.897 402.905L708.12 402.128C710.829 399.419 711.097 399.654 711.652 400.15Z" fill="white"/>
<path d="M708.897 402.97C708.877 402.97 708.864 402.963 708.851 402.95L708.067 402.174C708.041 402.147 708.041 402.108 708.067 402.082C710.822 399.327 711.11 399.588 711.691 400.111C711.704 400.124 711.71 400.137 711.71 400.156C711.71 400.176 711.704 400.189 711.691 400.202L708.936 402.95C708.929 402.963 708.91 402.97 708.897 402.97ZM708.211 402.128L708.897 402.813L711.553 400.156C711.07 399.725 710.744 399.595 708.211 402.128Z" fill="#FF6C37"/>
<path d="M709.686 403.695L708.936 402.944L711.69 400.189C712.428 400.933 711.325 402.141 709.686 403.695Z" fill="white"/>
<path d="M709.686 403.76C709.667 403.76 709.654 403.753 709.641 403.74L708.89 402.989C708.877 402.976 708.877 402.963 708.877 402.944C708.877 402.924 708.883 402.911 708.897 402.898L711.651 400.143C711.678 400.117 711.717 400.117 711.743 400.143C711.913 400.3 712.004 400.522 711.997 400.75C711.984 401.475 711.162 402.395 709.739 403.74C709.719 403.753 709.699 403.76 709.686 403.76ZM709.027 402.944C709.445 403.368 709.621 403.538 709.686 403.603C710.783 402.559 711.847 401.488 711.854 400.75C711.86 400.581 711.795 400.411 711.684 400.28L709.027 402.944Z" fill="#FF6C37"/>
<path d="M708.132 402.147L708.687 402.702C708.7 402.715 708.7 402.728 708.687 402.741C708.681 402.748 708.681 402.748 708.674 402.748L707.525 402.996C707.466 403.002 707.414 402.963 707.401 402.905C707.395 402.872 707.408 402.839 707.427 402.82L708.093 402.154C708.106 402.141 708.126 402.134 708.132 402.147Z" fill="white"/>
<path d="M707.506 403.061C707.408 403.061 707.336 402.983 707.336 402.885C707.336 402.839 707.356 402.794 707.388 402.761L708.054 402.095C708.093 402.063 708.145 402.063 708.185 402.095L708.739 402.65C708.779 402.683 708.779 402.742 708.739 402.781C708.726 402.794 708.713 402.8 708.694 402.807L707.545 403.055C707.532 403.055 707.519 403.061 707.506 403.061ZM708.113 402.219L707.473 402.859C707.46 402.872 707.453 402.892 707.466 402.911C707.473 402.931 707.493 402.937 707.512 402.931L708.589 402.696L708.113 402.219Z" fill="#FF6C37"/>
<path d="M713.107 398.622C712.689 398.218 712.017 398.231 711.612 398.655C711.207 399.079 711.221 399.745 711.645 400.15C711.991 400.483 712.513 400.542 712.924 400.294L712.18 399.549L713.107 398.622Z" fill="white"/>
<path d="M712.376 400.509C711.756 400.509 711.253 400.006 711.253 399.386C711.253 398.766 711.756 398.263 712.376 398.263C712.663 398.263 712.944 398.374 713.153 398.577C713.166 398.59 713.172 398.603 713.172 398.622C713.172 398.642 713.166 398.655 713.153 398.668L712.271 399.549L712.963 400.241C712.989 400.267 712.989 400.306 712.963 400.333C712.957 400.339 712.957 400.339 712.95 400.346C712.781 400.45 712.578 400.509 712.376 400.509ZM712.376 398.4C711.827 398.4 711.383 398.844 711.39 399.393C711.39 399.941 711.834 400.385 712.382 400.378C712.532 400.378 712.683 400.346 712.82 400.274L712.134 399.595C712.121 399.582 712.115 399.569 712.115 399.549C712.115 399.53 712.121 399.517 712.134 399.504L713.009 398.629C712.833 398.479 712.611 398.4 712.376 398.4Z" fill="#FF6C37"/>
<path d="M713.126 398.642L713.113 398.629L712.18 399.549L712.917 400.287C712.989 400.241 713.061 400.189 713.12 400.13C713.538 399.719 713.538 399.053 713.126 398.642Z" fill="white"/>
<path d="M712.925 400.359C712.905 400.359 712.892 400.352 712.879 400.339L712.135 399.595C712.122 399.582 712.115 399.569 712.115 399.549C712.115 399.53 712.122 399.517 712.135 399.504L713.062 398.577C713.088 398.551 713.127 398.551 713.153 398.577L713.173 398.59C713.61 399.027 713.61 399.732 713.179 400.176C713.114 400.241 713.042 400.3 712.964 400.346C712.944 400.352 712.931 400.359 712.925 400.359ZM712.272 399.549L712.931 400.209C712.983 400.176 713.036 400.13 713.075 400.091C713.447 399.719 713.467 399.112 713.108 398.72L712.272 399.549Z" fill="#FF6C37"/>
<path d="M711.762 400.267C711.606 400.111 711.351 400.111 711.194 400.267L708.733 402.729L709.145 403.14L711.749 400.855C711.919 400.711 711.932 400.457 711.789 400.287C711.775 400.28 711.769 400.274 711.762 400.267Z" fill="white"/>
<path d="M709.138 403.205C709.118 403.205 709.105 403.198 709.092 403.185L708.681 402.774C708.655 402.748 708.655 402.709 708.681 402.683L711.142 400.222C711.325 400.039 711.618 400.039 711.801 400.222C711.984 400.404 711.984 400.698 711.801 400.881C711.795 400.887 711.788 400.894 711.782 400.9L709.177 403.185C709.17 403.198 709.157 403.205 709.138 403.205ZM708.824 402.728L709.144 403.048L711.703 400.803C711.847 400.685 711.86 400.47 711.742 400.326C711.625 400.182 711.409 400.169 711.266 400.287C711.259 400.293 711.253 400.3 711.24 400.306L708.824 402.728Z" fill="#FF6C37"/>
<path d="M706.847 405.529C706.821 405.542 706.808 405.568 706.814 405.594L706.925 406.064C706.951 406.13 706.912 406.208 706.84 406.228C706.788 406.247 706.729 406.228 706.697 406.188L705.979 405.477L708.322 403.133L709.132 403.146L709.68 403.695C709.549 403.806 708.759 404.569 706.847 405.529Z" fill="white"/>
<path d="M706.794 406.293C706.742 406.293 706.69 406.273 706.657 406.234L705.945 405.522C705.932 405.509 705.926 405.496 705.926 405.477C705.926 405.457 705.932 405.444 705.945 405.431L708.289 403.087C708.302 403.074 708.322 403.068 708.335 403.068L709.144 403.081C709.164 403.081 709.177 403.087 709.19 403.101L709.738 403.649C709.751 403.662 709.758 403.682 709.758 403.701C709.758 403.721 709.751 403.734 709.732 403.747L709.686 403.786C708.994 404.393 708.054 405 706.885 405.581L706.996 406.045C707.016 406.13 706.977 406.221 706.898 406.267C706.859 406.286 706.827 406.293 706.794 406.293ZM706.076 405.477L706.748 406.143C706.768 406.175 706.807 406.188 706.84 406.169C706.872 406.149 706.885 406.11 706.866 406.077L706.755 405.607C706.742 405.549 706.768 405.496 706.82 405.47C707.976 404.889 708.909 404.289 709.595 403.695L709.111 403.211L708.361 403.198L706.076 405.477Z" fill="#FF6C37"/>
<path d="M705.423 406.038L705.985 405.477L706.82 406.312L705.489 406.221C705.43 406.214 705.391 406.162 705.397 406.103C705.397 406.077 705.404 406.051 705.423 406.038Z" fill="white"/>
<path d="M706.821 406.371L705.482 406.28C705.384 406.273 705.319 406.188 705.326 406.09C705.332 406.051 705.345 406.012 705.378 405.986L705.939 405.424C705.965 405.398 706.005 405.398 706.031 405.424L706.866 406.26C706.886 406.28 706.892 406.306 706.879 406.332C706.866 406.358 706.847 406.371 706.821 406.371ZM705.985 405.568L705.469 406.084C705.45 406.097 705.45 406.129 705.469 406.142C705.476 406.149 705.482 406.156 705.495 406.156L706.651 406.234L705.985 405.568Z" fill="#FF6C37"/>
<path d="M708.094 403.433C708.054 403.433 708.028 403.401 708.028 403.368C708.028 403.348 708.035 403.335 708.048 403.322L708.681 402.689C708.707 402.663 708.746 402.663 708.773 402.689L709.184 403.1C709.203 403.12 709.21 403.139 709.203 403.166C709.197 403.185 709.177 403.205 709.151 403.211L708.107 403.433C708.1 403.433 708.094 403.433 708.094 403.433ZM708.727 402.826L708.296 403.257L709.001 403.107L708.727 402.826Z" fill="#FF6C37"/>
<path d="M709.132 403.146L708.414 403.303C708.362 403.316 708.309 403.284 708.296 403.231C708.29 403.199 708.296 403.166 708.322 403.14L708.721 402.742L709.132 403.146Z" fill="white"/>
<path d="M708.401 403.368C708.309 403.368 708.237 403.296 708.237 403.205C708.237 403.159 708.257 403.12 708.283 403.087L708.681 402.689C708.707 402.663 708.746 402.663 708.773 402.689L709.184 403.1C709.203 403.12 709.21 403.139 709.203 403.166C709.197 403.185 709.177 403.205 709.151 403.211L708.433 403.368C708.42 403.368 708.407 403.368 708.401 403.368ZM708.727 402.826L708.374 403.179C708.361 403.192 708.361 403.205 708.368 403.218C708.374 403.231 708.387 403.237 708.407 403.237L709.008 403.107L708.727 402.826Z" fill="#FF6C37"/>
<path d="M713.133 399.268C713.12 399.229 713.074 399.21 713.035 399.223C712.996 399.236 712.976 399.282 712.989 399.321C712.989 399.327 712.996 399.334 712.996 399.34C713.035 399.419 713.022 399.517 712.97 399.588C712.944 399.621 712.95 399.667 712.976 399.693C713.009 399.719 713.055 399.712 713.081 399.68C713.179 399.556 713.198 399.399 713.133 399.268Z" fill="#FF6C37"/>
<rect x="679.521" y="243.741" width="33.4114" height="33.4114" rx="16.7057" fill="#00030A"/>
<rect x="679.971" y="244.191" width="32.5114" height="32.5114" rx="16.2557" stroke="white" stroke-opacity="0.3" stroke-width="0.9"/>
<path d="M700.434 258.403C700.299 258.356 700.158 258.312 700.014 258.27C700.037 258.174 700.059 258.078 700.079 257.984C700.397 256.439 700.189 255.195 699.478 254.785C698.797 254.392 697.683 254.802 696.558 255.781C696.45 255.875 696.341 255.975 696.233 256.079C696.16 256.01 696.088 255.943 696.016 255.88C694.837 254.833 693.655 254.391 692.945 254.802C692.265 255.196 692.063 256.366 692.35 257.83C692.377 257.971 692.41 258.116 692.446 258.262C692.279 258.31 692.117 258.361 691.963 258.414C690.58 258.896 689.697 259.652 689.697 260.435C689.697 261.245 690.645 262.056 692.085 262.549C692.199 262.587 692.317 262.624 692.438 262.659C692.399 262.818 692.364 262.973 692.336 263.125C692.063 264.564 692.276 265.706 692.955 266.097C693.656 266.502 694.832 266.086 695.978 265.085C696.069 265.005 696.16 264.921 696.251 264.833C696.369 264.947 696.486 265.055 696.604 265.155C697.713 266.111 698.81 266.496 699.488 266.104C700.188 265.698 700.416 264.471 700.12 262.978C700.098 262.864 700.071 262.748 700.042 262.629C700.125 262.605 700.206 262.58 700.285 262.553C701.782 262.057 702.756 261.256 702.756 260.435C702.756 259.649 701.844 258.888 700.434 258.403ZM700.109 262.024C700.038 262.047 699.965 262.07 699.89 262.092C699.725 261.569 699.502 261.013 699.229 260.438C699.489 259.877 699.704 259.328 699.864 258.808C699.998 258.847 700.128 258.887 700.252 258.93C701.461 259.346 702.198 259.961 702.198 260.435C702.198 260.94 701.402 261.596 700.109 262.024ZM699.573 263.087C699.704 263.747 699.722 264.344 699.636 264.81C699.558 265.229 699.402 265.509 699.208 265.621C698.797 265.859 697.917 265.549 696.967 264.733C696.859 264.639 696.749 264.539 696.639 264.433C697.007 264.031 697.375 263.563 697.734 263.043C698.365 262.987 698.961 262.896 699.502 262.771C699.529 262.878 699.553 262.984 699.573 263.087ZM694.149 265.58C693.747 265.722 693.427 265.726 693.233 265.614C692.821 265.376 692.65 264.459 692.884 263.229C692.911 263.088 692.942 262.944 692.979 262.796C693.514 262.914 694.106 262.999 694.739 263.05C695.1 263.559 695.479 264.026 695.86 264.435C695.777 264.516 695.694 264.592 695.611 264.664C695.104 265.107 694.597 265.422 694.149 265.58ZM692.266 262.021C691.629 261.803 691.103 261.52 690.743 261.212C690.419 260.934 690.255 260.659 690.255 260.435C690.255 259.96 690.964 259.353 692.146 258.941C692.29 258.891 692.44 258.844 692.596 258.8C692.759 259.331 692.974 259.887 693.232 260.449C692.97 261.019 692.753 261.584 692.588 262.122C692.477 262.09 692.369 262.056 692.266 262.021ZM692.897 257.723C692.652 256.468 692.815 255.522 693.225 255.285C693.662 255.032 694.628 255.393 695.646 256.297C695.711 256.354 695.776 256.415 695.842 256.478C695.462 256.885 695.087 257.349 694.729 257.854C694.115 257.911 693.527 258.003 692.987 258.125C692.953 257.988 692.923 257.854 692.897 257.723ZM698.53 259.114C698.401 258.89 698.268 258.672 698.133 258.461C698.549 258.513 698.949 258.583 699.323 258.669C699.211 259.029 699.071 259.407 698.906 259.793C698.787 259.568 698.662 259.342 698.53 259.114ZM696.233 256.876C696.49 257.155 696.748 257.466 697.001 257.804C696.746 257.792 696.487 257.786 696.227 257.786C695.968 257.786 695.712 257.792 695.458 257.804C695.712 257.469 695.971 257.158 696.233 256.876ZM693.921 259.117C693.792 259.341 693.669 259.567 693.552 259.793C693.39 259.407 693.251 259.029 693.137 258.663C693.51 258.579 693.907 258.511 694.321 258.46C694.184 258.673 694.05 258.893 693.921 259.117V259.117ZM694.333 262.451C693.905 262.403 693.502 262.339 693.13 262.258C693.245 261.885 693.387 261.498 693.553 261.105C693.67 261.331 693.793 261.556 693.923 261.78H693.923C694.056 262.009 694.193 262.233 694.333 262.451ZM696.248 264.034C695.984 263.749 695.72 263.433 695.463 263.094C695.713 263.103 695.967 263.108 696.227 263.108C696.493 263.108 696.756 263.102 697.015 263.091C696.761 263.437 696.504 263.753 696.248 264.034ZM698.911 261.085C699.085 261.483 699.233 261.867 699.349 262.233C698.971 262.32 698.562 262.389 698.131 262.441C698.267 262.226 698.401 262.005 698.532 261.777C698.665 261.546 698.791 261.315 698.911 261.085ZM698.049 261.498C697.845 261.852 697.635 262.19 697.422 262.509C697.035 262.536 696.635 262.551 696.227 262.551C695.82 262.551 695.425 262.538 695.044 262.513C694.823 262.19 694.609 261.851 694.406 261.501H694.406C694.204 261.152 694.018 260.799 693.849 260.449C694.017 260.098 694.203 259.745 694.404 259.396L694.404 259.396C694.606 259.046 694.818 258.709 695.037 258.388C695.426 258.359 695.824 258.343 696.227 258.343H696.227C696.631 258.343 697.03 258.359 697.418 258.388C697.634 258.707 697.845 259.043 698.047 259.393C698.252 259.747 698.44 260.097 698.61 260.441C698.44 260.79 698.253 261.144 698.049 261.498ZM699.2 255.268C699.637 255.521 699.807 256.538 699.532 257.871C699.515 257.956 699.495 258.043 699.474 258.131C698.932 258.006 698.343 257.913 697.728 257.855C697.369 257.344 696.997 256.879 696.624 256.477C696.724 256.381 696.824 256.289 696.924 256.202C697.888 255.363 698.789 255.032 699.2 255.268ZM696.227 259.269C696.871 259.269 697.393 259.791 697.393 260.435C697.393 261.079 696.871 261.602 696.227 261.602C695.583 261.602 695.06 261.079 695.06 260.435C695.06 259.791 695.583 259.269 696.227 259.269Z" fill="#00D8FF"/>
<circle cx="31.9626" cy="73.4811" r="0.852242" fill="white" fill-opacity="0.6"/>
<defs>
<linearGradient id="paint0_linear_886_803" x1="106.732" y1="127.961" x2="106.732" y2="130.978" gradientUnits="userSpaceOnUse">
<stop stop-color="#263238" stop-opacity="0.2"/>
<stop offset="1" stop-color="#263238" stop-opacity="0.02"/>
</linearGradient>
<radialGradient id="paint1_radial_886_803" cx="0" cy="0" r="1" gradientUnits="userSpaceOnUse" gradientTransform="translate(99.1881 124.732) scale(15.3108 15.3109)">
<stop stop-color="white" stop-opacity="0.1"/>
<stop offset="1" stop-color="white" stop-opacity="0"/>
</radialGradient>
<linearGradient id="paint2_linear_886_803" x1="615.845" y1="132.179" x2="628.376" y2="139.405" gradientUnits="userSpaceOnUse">
<stop stop-color="#2298BD"/>
<stop offset="1" stop-color="#0ED7B5"/>
</linearGradient>
<clipPath id="clip0_886_803">
<rect width="8.70571" height="13.0586" fill="white" transform="translate(502.108 40.2891)"/>
</clipPath>
<clipPath id="clip1_886_803">
<rect width="17.4114" height="17.4114" fill="white" transform="translate(282.422 700.02)"/>
</clipPath>
</defs>
</svg>
