<svg width="156" height="35" viewBox="0 0 156 35" fill="none" xmlns="http://www.w3.org/2000/svg">
<path d="M113.882 7.5H127.5V10.2626H117.119V15.8437H126.691V18.5785H117.119V24.2712H127.5V27.0339H113.882V7.5Z" fill="white"/>
<path d="M94.9775 23.8805V10.6533L98.1308 7.5H107.283L110.381 10.5975V13.1648H107.144V11.7416L105.665 10.2906H99.8051L98.2145 11.8533V22.6806L99.8051 24.2433H105.665L107.144 22.7922V21.369H110.381V23.9363L107.283 27.0339H98.1308L94.9775 23.8805Z" fill="white"/>
<path d="M87.4258 7.5H90.6628V27.0339H87.4258V7.5Z" fill="white"/>
<path d="M61.2217 7.5H64.4867L67.1098 22.2062H67.1935L71.3514 7.5H73.9466L77.965 22.2062H78.0767L80.6719 7.5H83.9368L79.9184 27.0339H76.793L72.6909 12.3835H72.6072L68.3655 27.0339H65.2401L61.2217 7.5Z" fill="white"/>
<path d="M50.1659 10.2626H44.3057V7.5H59.2631V10.2626H53.4029V27.0339H50.1659V10.2626Z" fill="white"/>
<path d="M28.6116 22.9317L38.7134 13.4997V11.351L37.6251 10.2906H32.8254L31.737 11.351V13.1648H28.5V10.3743L31.3743 7.5H39.0762L41.9505 10.3743V14.4485L31.9324 23.6852V24.2712H42.0621V27.0339H28.6116V22.9317Z" fill="white"/>
</svg>
