<svg width="239" height="36" viewBox="0 0 239 36" fill="none" xmlns="http://www.w3.org/2000/svg">
<path d="M10.41 11.68L4.35 28H0.57L6.84 11.14C7.62 8.83 8.91 7.39 11.61 7.39C14.61 7.39 16.11 9.16 16.11 11.8V23.77C16.11 24.46 16.53 24.91 17.13 24.91C17.67 24.91 18.09 24.58 18.27 24.07L23.19 11.14C23.97 8.83 25.26 7.39 27.96 7.39C30.96 7.39 32.46 9.16 32.46 11.8V28H28.89V11.98C28.89 11.26 28.47 10.81 27.87 10.81C27.36 10.81 26.94 11.17 26.76 11.68L21.84 24.61C21.06 26.92 19.74 28.36 17.04 28.36C14.07 28.36 12.57 26.59 12.57 23.92V11.98C12.57 11.26 12.12 10.81 11.52 10.81C10.98 10.81 10.62 11.17 10.41 11.68ZM43.3826 7.75H53.5226V11.29H43.3826C41.2526 11.29 40.3226 12.28 40.3226 13.84C40.3226 15.49 41.3726 16.24 43.4126 16.24H53.3726V19.45H43.3226C41.2826 19.45 40.2326 20.26 40.2326 21.91C40.2326 23.5 41.2226 24.46 43.2926 24.46H53.5526V28H43.2926C38.4926 28 36.5426 25.63 36.5426 22.48C36.5426 20.17 37.5926 18.61 39.4526 17.83C37.5626 17.05 36.6026 15.49 36.6026 13.27C36.6026 10.03 38.6126 7.75 43.3826 7.75ZM56.5634 7.75H71.9534V11.29H66.0434V28H62.4734V11.29H56.5634V7.75ZM81.642 11.71L75.222 28H71.322L78.432 10C79.182 8.11 80.562 7.39 82.692 7.39C84.792 7.39 86.172 8.11 86.892 10L93.732 28H89.802L83.652 11.71C83.472 11.23 83.142 11.02 82.662 11.02C82.182 11.02 81.852 11.23 81.642 11.71ZM95.4155 7.75H99.0155V21.28C99.0155 23.29 100.035 24.46 102.375 24.46H105.975C108.255 24.46 109.305 23.29 109.305 21.28V7.75H112.785V21.55C112.785 25.81 110.535 28 106.215 28H101.955C97.6355 28 95.4155 25.81 95.4155 21.55V7.75ZM117.478 7.75H127.858C132.418 7.75 134.368 10.57 134.368 13.81C134.368 16.87 132.598 20.17 127.858 20.17H121.558C121.228 20.17 121.048 20.32 121.048 20.68V28H117.508V19.99C117.508 17.71 118.468 16.78 120.688 16.78H127.978C129.988 16.78 130.798 15.4 130.798 13.99C130.798 12.52 129.928 11.29 128.008 11.29H117.478V7.75ZM143.269 7.75H153.529V11.29H143.149C141.319 11.29 140.509 12.28 140.509 13.69C140.509 14.92 141.139 16.09 143.509 16.09H148.249C153.769 16.09 155.059 19.15 155.059 22.06C155.059 25.48 153.229 28 148.609 28H137.329V24.46H148.729C150.649 24.46 151.519 23.41 151.519 21.94C151.519 20.62 150.829 19.42 148.339 19.42H143.629C138.229 19.42 136.969 16.39 136.969 13.57C136.969 10.21 138.769 7.75 143.269 7.75ZM158.933 7.75H169.313C173.873 7.75 175.823 10.57 175.823 13.81C175.823 16.87 174.053 20.17 169.313 20.17H163.013C162.683 20.17 162.503 20.32 162.503 20.68V28H158.963V19.99C158.963 17.71 159.923 16.78 162.143 16.78H169.433C171.443 16.78 172.253 15.4 172.253 13.99C172.253 12.52 171.383 11.29 169.463 11.29H158.933V7.75ZM185.587 11.71L179.167 28H175.267L182.377 10C183.127 8.11 184.507 7.39 186.637 7.39C188.737 7.39 190.117 8.11 190.837 10L197.677 28H193.747L187.597 11.71C187.417 11.23 187.087 11.02 186.607 11.02C186.127 11.02 185.797 11.23 185.587 11.71ZM207.911 7.75H215.741V11.29H207.911C204.011 11.29 202.301 13.24 202.301 17.89C202.301 22.51 203.981 24.46 207.911 24.46H215.741V28H207.911C202.001 28 198.761 24.67 198.761 17.89C198.761 11.08 202.031 7.75 207.911 7.75ZM225.99 7.75H236.13V11.29H225.99C223.86 11.29 222.93 12.28 222.93 13.84C222.93 15.49 223.98 16.24 226.02 16.24H235.98V19.45H225.93C223.89 19.45 222.84 20.26 222.84 21.91C222.84 23.5 223.83 24.46 225.9 24.46H236.16V28H225.9C221.1 28 219.15 25.63 219.15 22.48C219.15 20.17 220.2 18.61 222.06 17.83C220.17 17.05 219.21 15.49 219.21 13.27C219.21 10.03 221.22 7.75 225.99 7.75Z" fill="url(#paint0_linear_792_2820)"/>
<defs>
<linearGradient id="paint0_linear_792_2820" x1="1.03666e-07" y1="17.0667" x2="239" y2="17.0667" gradientUnits="userSpaceOnUse">
<stop stop-color="#2558EB"/>
<stop offset="1" stop-color="#25C4EB"/>
</linearGradient>
</defs>
</svg>
