<svg width="1511" height="1335" viewBox="0 0 1511 1335" fill="none" xmlns="http://www.w3.org/2000/svg">
<g opacity="0.7">
<mask id="mask0_1491_2088" style="mask-type:alpha" maskUnits="userSpaceOnUse" x="0" y="0" width="1511" height="1335">
<g clip-path="url(#clip0_1491_2088)">
<path d="M783.746 284.764C783.746 432.024 576.07 563.542 455.965 563.542C335.859 563.542 -414.547 47.0446 -414.547 -100.215C-414.547 -247.475 663.641 -44.7447 783.746 -44.7447C903.852 -44.7447 783.746 137.504 783.746 284.764Z" fill="url(#paint0_linear_1491_2088)"/>
<path d="M868.843 999.945C868.843 1147.21 771.478 1266.58 651.373 1266.58C531.267 1266.58 -137.824 1232.26 -137.824 1085C-137.824 937.738 -135.617 551.416 -15.5118 551.416C301.745 720.749 558.783 472.609 768.872 566.986C947.246 647.116 831.876 891.406 868.843 999.945Z" fill="url(#paint1_radial_1491_2088)"/>
<path d="M1115.54 369.324C1439.6 662.012 1289.9 514.924 1568.25 507.514C1611.91 515.925 1686.04 516.325 1633.23 450.634C1567.21 368.519 1588.49 310.521 1505.99 221.057C1423.48 131.593 1373.24 40.6994 1248.68 -101.591C1124.13 -243.881 1114.55 -126.587 974.125 -137.706C833.705 -148.825 897.751 -131.168 704.007 75.2894C510.263 281.746 791.472 76.6353 1115.54 369.324Z" fill="#D9D9D9"/>
<path d="M809.591 829.706C375.911 880.764 585.187 865.006 407.429 1079.32C372.34 1106.64 323.214 1162.15 407.429 1165.68C512.697 1170.09 542.324 1224.3 663.981 1221.15C785.638 1218 887.124 1240.06 1076.23 1240.06C1265.33 1240.06 1183.39 1155.6 1284.24 1057.26C1385.1 958.927 1329.63 995.488 1301.89 713.722C1274.16 431.956 1243.27 778.648 809.591 829.706Z" fill="#D9D9D9"/>
</g>
</mask>
<g mask="url(#mask0_1491_2088)">
<line x1="-6.07812" y1="1320.12" x2="1505.5" y2="1320.12" stroke="white" stroke-opacity="0.11" stroke-width="1.2607"/>
<line x1="-6.07812" y1="674.64" x2="1505.5" y2="674.64" stroke="white" stroke-opacity="0.11" stroke-width="1.2607"/>
<line x1="-6.07812" y1="997.378" x2="1505.5" y2="997.378" stroke="white" stroke-opacity="0.11" stroke-width="1.2607"/>
<line x1="-6.07812" y1="351.902" x2="1505.5" y2="351.902" stroke="white" stroke-opacity="0.11" stroke-width="1.2607"/>
<line x1="-6.07812" y1="29.1616" x2="1505.5" y2="29.1616" stroke="white" stroke-opacity="0.11" stroke-width="1.2607"/>
<line x1="-6.07812" y1="1158.75" x2="1505.5" y2="1158.75" stroke="white" stroke-opacity="0.11" stroke-width="1.2607"/>
<line x1="-6.07812" y1="513.27" x2="1505.5" y2="513.27" stroke="white" stroke-opacity="0.11" stroke-width="1.2607"/>
<line x1="-6.07812" y1="836.008" x2="1505.5" y2="836.008" stroke="white" stroke-opacity="0.11" stroke-width="1.2607"/>
<line x1="-6.07812" y1="190.532" x2="1505.5" y2="190.532" stroke="white" stroke-opacity="0.11" stroke-width="1.2607"/>
<line x1="-6.07812" y1="1239.43" x2="1505.5" y2="1239.43" stroke="white" stroke-opacity="0.11" stroke-width="1.2607"/>
<line x1="-6.07812" y1="593.955" x2="1505.5" y2="593.955" stroke="white" stroke-opacity="0.11" stroke-width="1.2607"/>
<line x1="-6.07812" y1="916.693" x2="1505.5" y2="916.693" stroke="white" stroke-opacity="0.11" stroke-width="1.2607"/>
<line x1="-6.07812" y1="271.216" x2="1505.5" y2="271.216" stroke="white" stroke-opacity="0.11" stroke-width="1.2607"/>
<line x1="-6.07812" y1="1078.06" x2="1505.5" y2="1078.06" stroke="white" stroke-opacity="0.11" stroke-width="1.2607"/>
<line x1="-6.07812" y1="432.584" x2="1505.5" y2="432.585" stroke="white" stroke-opacity="0.11" stroke-width="1.2607"/>
<line x1="-6.07812" y1="755.325" x2="1505.5" y2="755.325" stroke="white" stroke-opacity="0.11" stroke-width="1.2607"/>
<line x1="-6.07812" y1="109.846" x2="1505.5" y2="109.846" stroke="white" stroke-opacity="0.11" stroke-width="1.2607"/>
<line x1="41.1968" y1="0.796875" x2="41.1967" y2="1168.2" stroke="white" stroke-opacity="0.11" stroke-width="1.2607"/>
<line x1="686.677" y1="0.796875" x2="686.677" y2="1168.2" stroke="white" stroke-opacity="0.11" stroke-width="1.2607"/>
<line x1="363.939" y1="0.796875" x2="363.939" y2="1168.2" stroke="white" stroke-opacity="0.11" stroke-width="1.2607"/>
<line x1="1009.41" y1="0.796875" x2="1009.41" y2="1168.2" stroke="white" stroke-opacity="0.11" stroke-width="1.2607"/>
<line x1="1332.15" y1="0.796875" x2="1332.15" y2="1168.2" stroke="white" stroke-opacity="0.11" stroke-width="1.2607"/>
<line x1="202.568" y1="0.796875" x2="202.568" y2="1168.2" stroke="white" stroke-opacity="0.11" stroke-width="1.2607"/>
<line x1="848.044" y1="0.796875" x2="848.044" y2="1168.2" stroke="white" stroke-opacity="0.11" stroke-width="1.2607"/>
<line x1="525.306" y1="0.796875" x2="525.306" y2="1168.2" stroke="white" stroke-opacity="0.11" stroke-width="1.2607"/>
<line x1="1170.78" y1="0.796875" x2="1170.78" y2="1168.2" stroke="white" stroke-opacity="0.11" stroke-width="1.2607"/>
<line x1="1493.52" y1="0.796875" x2="1493.52" y2="1168.2" stroke="white" stroke-opacity="0.11" stroke-width="1.2607"/>
<line x1="121.884" y1="0.796875" x2="121.884" y2="1168.2" stroke="white" stroke-opacity="0.11" stroke-width="1.2607"/>
<line x1="767.361" y1="0.796875" x2="767.361" y2="1168.2" stroke="white" stroke-opacity="0.11" stroke-width="1.2607"/>
<line x1="444.619" y1="0.796875" x2="444.619" y2="1168.2" stroke="white" stroke-opacity="0.11" stroke-width="1.2607"/>
<line x1="1090.1" y1="0.796875" x2="1090.1" y2="1168.2" stroke="white" stroke-opacity="0.11" stroke-width="1.2607"/>
<line x1="1412.84" y1="0.796875" x2="1412.84" y2="1168.2" stroke="white" stroke-opacity="0.11" stroke-width="1.2607"/>
<line x1="283.255" y1="0.796875" x2="283.255" y2="1168.2" stroke="white" stroke-opacity="0.11" stroke-width="1.2607"/>
<line x1="928.732" y1="0.796875" x2="928.732" y2="1168.2" stroke="white" stroke-opacity="0.11" stroke-width="1.2607"/>
<line x1="605.99" y1="0.796875" x2="605.99" y2="1168.2" stroke="white" stroke-opacity="0.11" stroke-width="1.2607"/>
<line x1="1251.47" y1="0.796875" x2="1251.47" y2="1168.2" stroke="white" stroke-opacity="0.11" stroke-width="1.2607"/>
</g>
</g>
<defs>
<linearGradient id="paint0_linear_1491_2088" x1="104.861" y1="-26.4644" x2="559.342" y2="215.59" gradientUnits="userSpaceOnUse">
<stop stop-color="white"/>
<stop offset="1" stop-color="white" stop-opacity="0"/>
</linearGradient>
<radialGradient id="paint1_radial_1491_2088" cx="0" cy="0" r="1" gradientUnits="userSpaceOnUse" gradientTransform="translate(181.132 1006.2) rotate(-29.3932) scale(777.019 1335.47)">
<stop stop-color="white"/>
<stop offset="1" stop-color="white" stop-opacity="0"/>
</radialGradient>
<clipPath id="clip0_1491_2088">
<rect width="1511" height="1335" fill="white"/>
</clipPath>
</defs>
</svg>
