<svg width="19" height="19" viewBox="0 0 19 19" fill="none" xmlns="http://www.w3.org/2000/svg">
<path d="M9.5 3.58789C10.665 3.58789 11.7827 4.05028 12.6064 4.87402C13.4302 5.69778 13.8926 6.81551 13.8926 7.98047V8.01074L13.8955 8.03516C13.8955 8.03527 13.8962 8.03765 13.8965 8.04199C13.8971 8.05099 13.8979 8.06906 13.8984 8.0957C13.8995 8.14895 13.8981 8.23769 13.8877 8.3623C13.8668 8.61158 13.8079 9.00558 13.6523 9.54688C13.341 10.6299 12.6406 12.3056 11.0742 14.5928L11.0703 14.5996C10.8993 14.8574 10.6671 15.0686 10.3945 15.2148C10.1219 15.3612 9.81722 15.4375 9.50781 15.4375C9.19847 15.4375 8.89366 15.3611 8.62109 15.2148C8.34861 15.0685 8.11628 14.8573 7.94531 14.5996L7.94043 14.5928L7.65527 14.1709C6.27982 12.0984 5.64324 10.5621 5.34961 9.54688C5.1931 9.00564 5.13342 8.6115 5.1123 8.3623C5.10176 8.23781 5.10057 8.14893 5.10156 8.0957C5.10206 8.06909 5.10386 8.05096 5.10449 8.04199V8.04004L5.10352 8.04102L5.10742 8.01074V7.98047C5.10742 6.81551 5.57078 5.69778 6.39453 4.87402C7.21822 4.05054 8.33526 3.58792 9.5 3.58789ZM10.2969 6.05566C9.9163 5.89812 9.49773 5.85714 9.09375 5.9375C8.6898 6.01785 8.31864 6.21569 8.02734 6.50684C7.73599 6.79819 7.53742 7.17009 7.45703 7.57422C7.37672 7.97817 7.41765 8.39682 7.5752 8.77734C7.73288 9.15802 8.00017 9.48397 8.34277 9.71289C8.6853 9.9417 9.08807 10.0635 9.5 10.0635H10V9.99219C10.3634 9.90223 10.6999 9.71768 10.9697 9.44922C11.3601 9.06078 11.5803 8.53309 11.583 7.98242V7.98047C11.583 7.56852 11.4612 7.16579 11.2324 6.82324C11.0035 6.48064 10.6776 6.21335 10.2969 6.05566Z" fill="#BB6BD9" stroke="#BB6BD9"/>
</svg>
