<svg width="19" height="19" viewBox="0 0 19 19" fill="none" xmlns="http://www.w3.org/2000/svg">
<path d="M7.91504 3.86426H11.082C11.5267 3.86426 11.9531 4.04106 12.2676 4.35547C12.582 4.66991 12.7587 5.09634 12.7588 5.54102V6.72852C12.7588 6.86597 12.7275 7.00206 12.666 7.125C12.6046 7.24792 12.5152 7.35503 12.4053 7.4375L10.1885 9.09961L9.65527 9.5L10.1885 9.89941L12.4053 11.5625C12.5151 11.6449 12.6046 11.7522 12.666 11.875C12.7273 11.9978 12.7588 12.1332 12.7588 12.2705V13.458C12.7588 13.9028 12.5821 14.329 12.2676 14.6436C11.9531 14.9581 11.5268 15.1348 11.082 15.1348H7.9248C7.48533 15.1268 7.06576 14.9474 6.75781 14.6338C6.44986 14.3201 6.27825 13.8976 6.27832 13.458V12.2705C6.27832 12.1332 6.30977 11.9978 6.37109 11.875C6.43251 11.7522 6.522 11.6449 6.63184 11.5625L8.84863 9.89941L9.38184 9.5L8.84863 9.09961L6.63184 7.4375L6.625 7.43164L6.61719 7.42676C6.5027 7.34701 6.40866 7.24116 6.34277 7.11816C6.29328 7.02576 6.26048 6.92554 6.24609 6.82227L6.23828 6.71875V5.54102C6.23837 5.09634 6.41505 4.66991 6.72949 4.35547C7.04393 4.04103 7.47037 3.86434 7.91504 3.86426Z" fill="#00FF0D" stroke="#00FF0D"/>
</svg>
