<svg width="66" height="18" viewBox="0 0 66 18" fill="none" xmlns="http://www.w3.org/2000/svg">
<path fill-rule="evenodd" clip-rule="evenodd" d="M11.0512 6.15087C10.4554 5.6379 9.8487 5.48828 9.05786 5.48828C8.1262 5.48828 6.8912 5.89439 6.8912 7.06996C6.8912 8.22416 8.05036 8.56614 9.01453 8.64095C9.74036 8.6837 10.0329 8.82263 10.0329 9.1753C10.0329 9.54935 9.5887 9.79515 9.1012 9.78446C8.52703 9.77378 7.69286 9.47454 7.33536 9.07912L6.70703 9.97683C7.45453 10.7463 8.26703 10.8852 9.07953 10.8852C10.542 10.8852 11.2895 10.1158 11.2895 9.21805C11.2895 7.87149 10.0654 7.65774 9.09036 7.59362C8.42953 7.55087 8.13703 7.3692 8.13703 7.0379C8.13703 6.71729 8.47286 6.53561 9.0687 6.53561C9.5562 6.53561 9.9787 6.65317 10.3362 6.98446L11.0512 6.15087Z" fill="#F89522"/>
<path fill-rule="evenodd" clip-rule="evenodd" d="M12.7092 4.33424V5.63806H11.7559V6.71745H12.7092V8.90829C12.7092 10.1694 13.435 10.7999 14.5509 10.7571C14.9409 10.7465 15.2334 10.6823 15.6017 10.5434L15.2442 9.4747C15.06 9.57088 14.8325 9.62432 14.6267 9.62432C14.2259 9.62432 13.9659 9.38921 13.9659 8.90829V6.71745H15.3959V5.63806H13.9767V4.19531L12.7092 4.33424Z" fill="#F89522"/>
<path fill-rule="evenodd" clip-rule="evenodd" d="M18.6671 6.632C20.6604 6.632 20.6604 9.69917 18.6671 9.69917C17.8221 9.69917 17.1504 9.12207 17.1504 8.16024C17.1396 7.18772 17.8221 6.632 18.6671 6.632ZM20.1837 6.33276C19.8912 5.83047 19.2412 5.50986 18.5479 5.50986C17.0529 5.49917 15.8721 6.41826 15.8721 8.16024C15.8721 9.93429 16.9987 10.8641 18.5154 10.8534C19.0896 10.8427 19.8912 10.5541 20.1837 9.95566L20.2487 10.6931H21.4512V5.62742H20.2379L20.1837 6.33276Z" fill="#F89522"/>
<path fill-rule="evenodd" clip-rule="evenodd" d="M22.2529 5.62629V10.6919H23.5204V8.02018C23.5204 7.09041 24.1379 6.73774 24.7988 6.73774C25.2104 6.73774 25.4596 6.8553 25.7196 7.06904L26.2938 5.97896C26.0121 5.7011 25.5029 5.49805 24.9721 5.49805C24.4521 5.49805 23.9213 5.59423 23.5204 6.21408L23.4229 5.62629H22.2529Z" fill="#F89522"/>
<path fill-rule="evenodd" clip-rule="evenodd" d="M27.8537 4.33424V5.63806H26.9004V6.71745H27.8537V8.90829C27.8537 10.1694 28.5796 10.7999 29.6954 10.7571C30.0854 10.7465 30.3779 10.6823 30.7462 10.5434L30.3887 9.4747C30.2046 9.57088 29.9771 9.62432 29.7712 9.62432C29.3704 9.62432 29.1104 9.38921 29.1104 8.90829V6.71745H30.5404V5.63806H29.1212V4.19531L27.8537 4.33424Z" fill="#F89522"/>
<path fill-rule="evenodd" clip-rule="evenodd" d="M31.4834 5.62695V8.28802C31.4834 9.85901 32.3826 10.7781 33.6067 10.7781C34.3217 10.7781 34.8092 10.5323 35.3509 10.0193L35.4376 10.6926H36.5751V5.62695H35.3184V8.21321C35.3184 8.99337 34.7876 9.63459 34.0076 9.63459C33.1951 9.63459 32.7726 9.0468 32.7726 8.27734V5.62695H31.4834Z" fill="#F89522"/>
<path fill-rule="evenodd" clip-rule="evenodd" d="M38.5791 12.809V10.0945C38.9474 10.6502 39.7491 10.8105 40.2908 10.8105C41.9374 10.8105 42.8799 9.63496 42.8799 8.16015C42.8799 6.67465 41.8291 5.50977 40.2474 5.50977C39.6624 5.50977 38.9799 5.75557 38.5791 6.32198L38.4924 5.62732H37.3008V12.809H38.5791ZM40.1499 9.6029C39.2833 9.6029 38.6874 8.96168 38.6874 8.16015C38.6874 7.36931 39.2291 6.7174 40.1499 6.7174C41.0708 6.7174 41.6124 7.36931 41.6124 8.16015C41.6016 8.96168 41.0058 9.6029 40.1499 9.6029Z" fill="#F89522"/>
<path fill-rule="evenodd" clip-rule="evenodd" d="M43.4541 4.20595C43.4541 5.17847 44.9491 5.17847 44.9491 4.20595C44.9599 3.23343 43.4541 3.23343 43.4541 4.20595ZM44.8408 10.693H43.5733V5.60595H44.8408V10.693Z" fill="#F89522"/>
<path fill-rule="evenodd" clip-rule="evenodd" d="M50.702 10.6922V8.03109C50.702 6.43872 49.7379 5.54102 48.5245 5.54102C47.8745 5.54102 47.3545 5.7975 46.8345 6.29979L46.7479 5.61582H45.6104V10.6922H46.867V8.1059C46.867 7.33644 47.3979 6.68453 48.1779 6.68453C48.9904 6.68453 49.4129 7.27231 49.4129 8.04178V10.6922H50.702Z" fill="#F89522"/>
<path fill-rule="evenodd" clip-rule="evenodd" d="M55.6524 3.51069V6.31069C55.3491 5.78702 54.5041 5.49847 53.9624 5.49847C52.4674 5.49847 51.3516 6.40687 51.3516 8.14885C51.3516 9.81603 52.4891 10.7992 53.9949 10.7992C54.6232 10.7992 55.2516 10.5962 55.6524 9.98702L55.7391 10.6817H56.9307V3.5H55.6524V3.51069ZM54.0816 6.67405C54.8832 6.67405 55.5657 7.27252 55.5657 8.14885C55.5657 9.05725 54.8832 9.63435 54.0816 9.63435C53.2691 9.63435 52.6191 9.02519 52.6191 8.14885C52.6299 7.24046 53.2691 6.67405 54.0816 6.67405Z" fill="#F89522"/>
<path fill-rule="evenodd" clip-rule="evenodd" d="M57.8623 4.20595C57.8623 5.17847 59.3573 5.17847 59.3573 4.20595C59.3573 3.23343 57.8623 3.23343 57.8623 4.20595Z" fill="#A4CD39"/>
<path d="M59.2489 5.60547H57.9814V10.6925H59.2489V5.60547Z" fill="#3DC5F2"/>
<path fill-rule="evenodd" clip-rule="evenodd" d="M62.7158 6.632C64.7091 6.632 64.7091 9.69917 62.7158 9.69917C61.8708 9.69917 61.1991 9.12207 61.1991 8.16024C61.1991 7.18772 61.8816 6.632 62.7158 6.632ZM64.2433 6.33276C63.9508 5.83047 63.3008 5.50986 62.6075 5.50986C61.1125 5.49917 59.9316 6.41826 59.9316 8.16024C59.9316 9.93429 61.0583 10.8641 62.575 10.8534C63.1491 10.8427 63.9508 10.5541 64.2433 9.95566L64.3083 10.6931H65.5V5.62742H64.2866L64.2433 6.33276Z" fill="#F89522"/>
<path d="M59.26 11.4727H53.1934V12.7017H59.26V11.4727Z" fill="#A4CD39"/>
<path d="M54.4069 11.4824H53.1719V17.4778H54.4069V11.4824Z" fill="#A4CD39"/>
<path d="M54.4063 16.25H48.3613V17.479H54.4063V16.25Z" fill="#A4CD39"/>
<path d="M3.5225 4.7832L3.1975 6.05496H4.14L4.465 4.7832H5.61333L5.29917 6.06565H5.91667V7.04885H5.05L4.64917 8.59847H5.33167V9.59236H4.42167L4.14 10.7466H2.97L3.25167 9.59236H2.29833L2.01667 10.7466H0.868333L1.15 9.59236H0.5V8.59847H1.41L1.81083 7.03817H1.09583V6.06565H2.04917L2.36333 4.79389H3.5225V4.7832ZM2.905 6.97404L2.47167 8.66259H3.555L3.98833 6.97404H2.905Z" fill="#F89522"/>
</svg>
